<?xml version="1.0" encoding="utf-8"?>
<!-- Generator: Adobe Illustrator 16.0.3, SVG Export Plug-In . SVG Version: 6.00 Build 0)  -->
<!DOCTYPE svg PUBLIC "-//W3C//DTD SVG 1.1//EN" "http://www.w3.org/Graphics/SVG/1.1/DTD/svg11.dtd">
<svg version="1.1" xmlns="http://www.w3.org/2000/svg" xmlns:xlink="http://www.w3.org/1999/xlink" x="0px" y="0px" width="24px"
	 height="24px" viewBox="0 0 24 24" enable-background="new 0 0 24 24" xml:space="preserve">
<g id="Outline_Icons_1_">
	<g id="Outline_Icons">
	</g>
	<g id="New_icons_1_">
		<g>
			<path d="M21.285,9.856c-0.299-0.524-0.709-1.243-0.721-1.452C20.563,3.144,15.701,0,11,0C5.393,0,1,4.42,1,10.062
				c0,3.6,1.345,6.276,4,7.958v5.48C5,23.776,5.224,24,5.5,24h10c0.276,0,0.5-0.224,0.5-0.5v-2.978
				c1.738-0.019,2.801-0.209,3.572-0.981c0.835-0.835,0.955-3.34,0.962-4.528c0.304,0.005,0.686,0.007,1.016-0.007
				c0.388-0.017,0.749-0.211,0.963-0.519c0.199-0.283,0.184-0.542,0.194-0.882C22.788,12.489,21.989,11.091,21.285,9.856z
				 M21.694,13.914c-0.036,0.051-0.113,0.089-0.186,0.093C20.883,14.032,20.055,14,20.05,14c-0.14-0.014-0.272,0.046-0.37,0.143
				c-0.098,0.098-0.152,0.23-0.149,0.368c0.033,1.485-0.151,3.808-0.667,4.323c-0.532,0.533-1.352,0.703-3.362,0.689
				c-0.143-0.01-0.261,0.052-0.355,0.146S15,19.89,15,20.023V23H6v-5.26c0-0.177-0.093-0.34-0.245-0.43
				C3.263,15.833,2,13.394,2,10.062C2,4.981,5.953,1,11,1c4.209,0,8.563,2.771,8.563,7.406c0,0.432,0.308,0.992,0.853,1.946
				c0.57,1,1.352,2.368,1.294,3.18C21.708,13.563,21.701,13.895,21.694,13.914z"/>
			<path d="M16.661,5.633l-6.147,5.674l-1.66-1.66c-0.195-0.195-0.512-0.195-0.707,0s-0.195,0.512,0,0.707l2,2
				c0.097,0.098,0.226,0.146,0.354,0.146c0.122,0,0.243-0.044,0.339-0.133l6.5-6c0.203-0.187,0.215-0.503,0.028-0.707
				C17.181,5.458,16.864,5.445,16.661,5.633z"/>
			<path d="M15.5,10c-0.276,0-0.5,0.224-0.5,0.5V14H7V6h6.5C13.776,6,14,5.776,14,5.5S13.776,5,13.5,5h-7C6.224,5,6,5.224,6,5.5v9
				C6,14.776,6.224,15,6.5,15h9c0.276,0,0.5-0.224,0.5-0.5v-4C16,10.224,15.776,10,15.5,10z"/>
		</g>
	</g>
</g>
<g id="Invisible_Shape">
	<rect fill="none" width="24" height="24"/>
</g>
</svg>
