<?xml version="1.0" encoding="utf-8"?>
<!-- Generator: Adobe Illustrator 16.0.3, SVG Export Plug-In . SVG Version: 6.00 Build 0)  -->
<!DOCTYPE svg PUBLIC "-//W3C//DTD SVG 1.1//EN" "http://www.w3.org/Graphics/SVG/1.1/DTD/svg11.dtd">
<svg version="1.1" xmlns="http://www.w3.org/2000/svg" xmlns:xlink="http://www.w3.org/1999/xlink" x="0px" y="0px" width="24px"
	 height="24px" viewBox="0 0 24 24" enable-background="new 0 0 24 24" xml:space="preserve">
<g id="Outline_Icons_1_" fill="#fff">
	<g id="Outline_Icons">
		<g>
			<path d="M21.285,9.856c-0.299-0.524-0.709-1.243-0.721-1.452C20.563,3.144,15.701,0,11,0C5.393,0,1,4.42,1,10.062
				c0,3.6,1.345,6.276,4,7.958v5.48C5,23.776,5.224,24,5.5,24h10c0.276,0,0.5-0.224,0.5-0.5v-2.978
				c1.738-0.019,2.801-0.209,3.572-0.981c0.835-0.835,0.955-3.34,0.962-4.528c0.303,0.005,0.687,0.007,1.016-0.007
				c0.388-0.017,0.749-0.211,0.963-0.519c0.199-0.283,0.184-0.542,0.194-0.882C22.788,12.489,21.989,11.091,21.285,9.856z
				 M21.694,13.914c-0.036,0.051-0.113,0.089-0.186,0.093C20.883,14.03,20.055,14,20.05,14c-0.143-0.015-0.271,0.046-0.37,0.143
				c-0.098,0.098-0.152,0.23-0.149,0.368c0.033,1.485-0.151,3.808-0.667,4.323c-0.532,0.533-1.366,0.702-3.362,0.689
				c-0.147,0.002-0.261,0.052-0.355,0.146S15,19.89,15,20.023V23H6v-5.26c0-0.177-0.093-0.34-0.245-0.43
				C3.263,15.833,2,13.394,2,10.062C2,4.981,5.953,1,11,1c4.209,0,8.563,2.771,8.563,7.406c0,0.432,0.308,0.992,0.853,1.946
				c0.57,1,1.352,2.368,1.294,3.18C21.706,13.6,21.702,13.892,21.694,13.914z"/>
			<path d="M15.089,7h-1.903l1.423-3.302c0.067-0.154,0.051-0.333-0.042-0.473C14.476,3.084,14.319,3,14.15,3h-3.539
				c-0.203,0-0.385,0.122-0.462,0.31l-2.89,7c-0.063,0.154-0.046,0.33,0.047,0.468S7.555,11,7.722,11h2.116l-1.021,5.103
				c-0.047,0.235,0.079,0.469,0.299,0.561c0.062,0.026,0.127,0.038,0.191,0.038c0.163,0,0.321-0.08,0.417-0.224l5.782-8.701
				c0.102-0.154,0.111-0.35,0.024-0.513C15.442,7.102,15.273,7,15.089,7z M10.295,13.811l0.643-3.212
				c0.029-0.147-0.009-0.299-0.104-0.415C10.739,10.067,10.597,10,10.447,10H8.469l2.477-6h2.444l-1.423,3.302
				c-0.067,0.154-0.051,0.333,0.042,0.473C12.101,7.916,12.257,8,12.426,8h1.73L10.295,13.811z"/>
		</g>
	</g>
	<g id="New_icons_1_">
	</g>
</g>
<g id="Invisible_Shape">
	<rect fill="none" width="24" height="24"/>
</g>
</svg>
