<?xml version="1.0" encoding="utf-8"?>
<!-- Generator: Adobe Illustrator 16.0.3, SVG Export Plug-In . SVG Version: 6.00 Build 0)  -->
<!DOCTYPE svg PUBLIC "-//W3C//DTD SVG 1.1//EN" "http://www.w3.org/Graphics/SVG/1.1/DTD/svg11.dtd">
<svg version="1.1" xmlns="http://www.w3.org/2000/svg" xmlns:xlink="http://www.w3.org/1999/xlink" x="0px" y="0px" width="24px"
	 height="24px" viewBox="0 0 24 24" enable-background="new 0 0 24 24" xml:space="preserve">
<g id="Outline_Icons">
	<g>
		<path d="M17,11.812c1,0,1.812-0.813,1.812-1.812S18,8.188,17,8.188S15.188,9,15.188,10S16,11.812,17,11.812z M17,9.188
			c0.448,0,0.812,0.365,0.812,0.812c0,0.448-0.364,0.812-0.812,0.812S16.188,10.448,16.188,10C16.188,9.552,16.552,9.188,17,9.188z"
			/>
		<path d="M18.532,3.203c-3.195-0.752-6.462,0.608-7.763,3.23c-0.123,0.247-0.022,0.547,0.226,0.669
			c0.247,0.124,0.547,0.023,0.67-0.225c1.243-2.504,4.28-3.255,6.639-2.701C21.244,4.866,23,7.23,23,10.5v8c0,0.772-1.127,1.5-2,1.5
			H4.5C2.57,20,1,18.43,1,16.5V13h1.063C2.328,15.628,4.677,17,7,17c2.757,0,5-2.243,5-5c0-0.252-0.02-0.498-0.057-0.739
			c-0.042-0.272-0.297-0.462-0.57-0.418c-0.273,0.042-0.46,0.297-0.418,0.57C10.984,11.604,11,11.8,11,12c0,2.206-1.794,4-4,4
			c-1.874,0-3.749-1.102-3.928-3.188l10.316-4.503C13.146,8.825,13,9.394,13,10c0,2.206,1.794,4,4,4s4-1.794,4-4s-1.794-4-4-4
			c-0.694,0-1.338,0.194-1.907,0.506l-0.012-0.027L2.434,12H0.5C0.224,12,0,12.224,0,12.5v4C0,18.982,2.019,21,4.5,21H21
			c1.387,0,3-1.092,3-2.5v-8C24,6.065,21.175,3.823,18.532,3.203z M20,10c0,1.654-1.346,3-3,3s-3-1.346-3-3s1.346-3,3-3
			S20,8.346,20,10z"/>
	</g>
</g>
<g id="Invisible_Shape">
	<rect fill="none" width="24" height="24"/>
</g>
</svg>
