<?xml version="1.0" encoding="utf-8"?>
<!-- Generator: Adobe Illustrator 16.0.3, SVG Export Plug-In . SVG Version: 6.00 Build 0)  -->
<!DOCTYPE svg PUBLIC "-//W3C//DTD SVG 1.1//EN" "http://www.w3.org/Graphics/SVG/1.1/DTD/svg11.dtd">
<svg version="1.1" xmlns="http://www.w3.org/2000/svg" xmlns:xlink="http://www.w3.org/1999/xlink" x="0px" y="0px" width="24px"
	 height="24px" viewBox="0 0 24 24" enable-background="new 0 0 24 24" xml:space="preserve">
<g id="Outline_Icons_1_" fill="#fff">
	<g id="Outline_Icons">
		<g>
			<path d="M6.5,0C6.224,0,6,0.224,6,0.5V4v1.5C6,6.327,5.327,7,4.5,7h-2C1.673,7,1,6.327,1,5.5V4V0.5C1,0.224,0.776,0,0.5,0
				S0,0.224,0,0.5V4v1.5V22c0,1.252,0.935,2,2.5,2h2C6.065,24,7,23.252,7,22V5.5V4V0.5C7,0.224,6.776,0,6.5,0z M2.5,8h2
				C5.065,8,5.581,7.805,6,7.487V11H1V7.487C1.419,7.805,1.935,8,2.5,8z M1,18h5v1H1V18z M1,17v-3h5v3H1z M1,13v-1h5v1H1z M4.5,23
				h-2C1,23,1,22.248,1,22v-2h5v2C6,22.248,6,23,4.5,23z"/>
			<path d="M14.5,0C14.224,0,14,0.224,14,0.5V4v1.5C14,6.327,13.327,7,12.5,7h-2C9.673,7,9,6.327,9,5.5V4V0.5C9,0.224,8.776,0,8.5,0
				S8,0.224,8,0.5V4v1.5V22c0,1.252,0.935,2,2.5,2h2c1.565,0,2.5-0.748,2.5-2V5.5V4V0.5C15,0.224,14.776,0,14.5,0z M10.5,8h2
				c0.565,0,1.081-0.195,1.5-0.513V11H9V7.487C9.419,7.805,9.935,8,10.5,8z M9,18h5v1H9V18z M9,17v-3h5v3H9z M9,13v-1h5v1H9z
				 M12.5,23h-2C9,23,9,22.248,9,22v-2h5v2C14,22.248,14,23,12.5,23z"/>
			<path d="M22.5,0C22.224,0,22,0.224,22,0.5V4v1.5C22,6.327,21.327,7,20.5,7h-2C17.673,7,17,6.327,17,5.5V4V0.5
				C17,0.224,16.776,0,16.5,0S16,0.224,16,0.5V4v1.5V22c0,1.252,0.935,2,2.5,2h2c1.565,0,2.5-0.748,2.5-2V5.5V4V0.5
				C23,0.224,22.776,0,22.5,0z M18.5,8h2c0.565,0,1.081-0.195,1.5-0.513V11h-5V7.487C17.419,7.805,17.935,8,18.5,8z M17,18h5v1h-5
				V18z M17,17v-3h5v3H17z M17,13v-1h5v1H17z M20.5,23h-2C17,23,17,22.248,17,22v-2h5v2C22,22.248,22,23,20.5,23z"/>
			<path d="M2.5,6C2.776,6,3,5.776,3,5.5v-4C3,1.224,2.776,1,2.5,1S2,1.224,2,1.5v4C2,5.776,2.224,6,2.5,6z"/>
			<path d="M4.5,6C4.776,6,5,5.776,5,5.5v-4C5,1.224,4.776,1,4.5,1S4,1.224,4,1.5v4C4,5.776,4.224,6,4.5,6z"/>
			<path d="M10.5,6C10.776,6,11,5.776,11,5.5v-4C11,1.224,10.776,1,10.5,1S10,1.224,10,1.5v4C10,5.776,10.224,6,10.5,6z"/>
			<path d="M12.5,6C12.776,6,13,5.776,13,5.5v-4C13,1.224,12.776,1,12.5,1S12,1.224,12,1.5v4C12,5.776,12.224,6,12.5,6z"/>
			<path d="M18.5,6C18.776,6,19,5.776,19,5.5v-4C19,1.224,18.776,1,18.5,1S18,1.224,18,1.5v4C18,5.776,18.224,6,18.5,6z"/>
			<path d="M20.5,6C20.776,6,21,5.776,21,5.5v-4C21,1.224,20.776,1,20.5,1S20,1.224,20,1.5v4C20,5.776,20.224,6,20.5,6z"/>
		</g>
	</g>
	<g id="New_icons_1_">
	</g>
</g>
<g id="Invisible_Shape">
	<rect fill="none" width="24" height="24"/>
</g>
</svg>
