<?xml version="1.0" encoding="utf-8"?>
<!-- Generator: Adobe Illustrator 16.0.3, SVG Export Plug-In . SVG Version: 6.00 Build 0)  -->
<!DOCTYPE svg PUBLIC "-//W3C//DTD SVG 1.1//EN" "http://www.w3.org/Graphics/SVG/1.1/DTD/svg11.dtd">
<svg version="1.1" xmlns="http://www.w3.org/2000/svg" xmlns:xlink="http://www.w3.org/1999/xlink" x="0px" y="0px" width="24px"
	 height="24px" viewBox="0 0 24 24" enable-background="new 0 0 24 24" xml:space="preserve">
<g id="Outline_Icons" fill="#444">
	<g>
		<path d="M23.67,6.467c-0.071-0.026-0.732-0.244-1.457,0.264c-1.113,0.781-1.688,2.819-1.712,6.061l-1.594,1.594l0.298-1.301
			c0.253-1.059-0.213-1.78-0.787-2.025c-0.532-0.226-1.294-0.095-1.808,0.702c-0.69,1.073-1.554,3.967-1.59,4.09
			C15.007,15.897,15,15.945,15,15.993V20h-0.5c-0.276,0-0.5,0.224-0.5,0.5v3c0,0.276,0.224,0.5,0.5,0.5h6c0.276,0,0.5-0.224,0.5-0.5
			v-3c0-0.276-0.224-0.5-0.5-0.5H20v-0.823c0.638-0.631,3.146-3.115,3.854-3.824C23.947,15.26,24,15.133,24,15V6.938
			C24,6.728,23.868,6.54,23.67,6.467z M20,23h-5v-2h5V23z M23,14.792c-0.991,0.989-3.852,3.821-3.852,3.821
			C19.054,18.708,19,18.835,19,18.969V20h-3v-3.934c0.256-0.851,0.956-2.994,1.452-3.764c0.174-0.271,0.398-0.397,0.573-0.323
			c0.182,0.078,0.324,0.384,0.206,0.877l-0.688,3c-0.05,0.218,0.05,0.441,0.245,0.55c0.195,0.108,0.438,0.074,0.596-0.084
			l2.969-2.969C21.447,13.26,21.5,13.133,21.5,13c0-3.903,0.789-5.078,1.26-5.43c0.086-0.064,0.167-0.105,0.24-0.132V14.792z"/>
		<path d="M9.5,20H9v-4.007c0-0.048-0.007-0.096-0.021-0.142c-0.036-0.123-0.899-3.017-1.59-4.09
			c-0.515-0.798-1.273-0.928-1.808-0.702c-0.574,0.245-1.04,0.967-0.788,2.021l0.299,1.305l-1.594-1.594
			C3.476,9.55,2.9,7.512,1.787,6.731C1.063,6.223,0.401,6.441,0.33,6.467C0.132,6.54,0,6.728,0,6.938V15
			c0,0.15,0.067,0.293,0.185,0.388C1.028,16.075,3.402,18.544,4,19.169V20H3.5C3.224,20,3,20.224,3,20.5v3C3,23.776,3.224,24,3.5,24
			h6c0.276,0,0.5-0.224,0.5-0.5v-3C10,20.224,9.776,20,9.5,20z M4.862,18.624C4.746,18.502,2.142,15.765,1,14.768v-7.33
			C1.073,7.464,1.154,7.506,1.24,7.57C1.711,7.922,2.5,9.097,2.5,13c0,0.133,0.053,0.26,0.146,0.354l2.969,2.969
			c0.157,0.158,0.402,0.192,0.596,0.084c0.195-0.108,0.295-0.332,0.245-0.55l-0.688-3.004c-0.117-0.489,0.025-0.795,0.207-0.873
			c0.175-0.072,0.399,0.052,0.573,0.323c0.496,0.77,1.196,2.913,1.452,3.764V20H5v-1.031C5,18.84,4.951,18.717,4.862,18.624z M9,23
			H4v-2h5V23z"/>
		<path d="M18,9.5v-6c0-0.088-0.024-0.172-0.066-0.246c-0.012-0.02-0.033-0.031-0.047-0.049c-0.036-0.048-0.071-0.098-0.124-0.13
			c-0.004-0.002-0.01-0.002-0.014-0.004c-0.004-0.002-0.006-0.007-0.01-0.009l-5.5-3c-0.148-0.081-0.33-0.081-0.479,0l-5.5,3
			c-0.001,0-0.002,0.002-0.003,0.003s-0.003,0-0.004,0.001C6.218,3.085,6.198,3.121,6.17,3.148C6.136,3.18,6.096,3.205,6.071,3.245
			C6.05,3.281,6.048,3.324,6.036,3.365C6.024,3.407,6.001,3.445,6,3.49c0,0.002,0.001,0.003,0.001,0.005S6,3.498,6,3.5v6
			c0,0.176,0.092,0.338,0.243,0.429l5,3C11.321,12.976,11.411,13,11.5,13c0.076,0,0.153-0.018,0.224-0.053l6-3
			C17.893,9.862,18,9.69,18,9.5z M12,1.069l4.42,2.411l-4.898,2.45l-4.016-2.41L12,1.069z M7,4.383l4,2.399v4.834l-4-2.4V4.383z
			 M17,9.191l-5,2.5V6.809l5-2.5V9.191z"/>
	</g>
</g>
<g id="Invisible_Shape">
	<rect fill="none" width="24" height="24"/>
</g>
</svg>
