<?xml version="1.0" encoding="utf-8"?>
<!-- Generator: Adobe Illustrator 16.0.3, SVG Export Plug-In . SVG Version: 6.00 Build 0)  -->
<!DOCTYPE svg PUBLIC "-//W3C//DTD SVG 1.1//EN" "http://www.w3.org/Graphics/SVG/1.1/DTD/svg11.dtd">
<svg version="1.1" xmlns="http://www.w3.org/2000/svg" xmlns:xlink="http://www.w3.org/1999/xlink" x="0px" y="0px" width="24px"
	 height="24px" viewBox="0 0 24 24" enable-background="new 0 0 24 24" xml:space="preserve">
<g id="Outline_Icons_1_" fill="#fff">
	<g id="Outline_Icons">
	</g>
	<g id="New_icons_1_">
		<g>
			<path d="M9.5,18H1V8h19v2c0,0.276,0.224,0.5,0.5,0.5S21,10.276,21,10V2.5C21,2.224,20.776,2,20.5,2H17V0.5
				C17,0.224,16.776,0,16.5,0h-3C13.224,0,13,0.224,13,0.5V2H8V0.5C8,0.224,7.776,0,7.5,0h-3C4.224,0,4,0.224,4,0.5V2H0.5
				C0.224,2,0,2.224,0,2.5v16C0,18.776,0.224,19,0.5,19h9c0.276,0,0.5-0.224,0.5-0.5S9.776,18,9.5,18z M14,1h2v3h-2V1z M5,1h2v3H5V1
				z M4,3v1.5C4,4.776,4.224,5,4.5,5h3C7.776,5,8,4.776,8,4.5V3h5v1.5C13,4.776,13.224,5,13.5,5h3C16.776,5,17,4.776,17,4.5V3h3v4H1
				V3H4z"/>
			<path d="M17.5,11c-3.584,0-6.5,2.916-6.5,6.5s2.916,6.5,6.5,6.5s6.5-2.916,6.5-6.5S21.084,11,17.5,11z M17.5,23
				c-3.033,0-5.5-2.467-5.5-5.5s2.467-5.5,5.5-5.5s5.5,2.467,5.5,5.5S20.533,23,17.5,23z"/>
			<path d="M20,18h-2v-3c0-0.276-0.224-0.5-0.5-0.5S17,14.724,17,15v3.5c0,0.276,0.224,0.5,0.5,0.5H20c0.276,0,0.5-0.224,0.5-0.5
				S20.276,18,20,18z"/>
		</g>
	</g>
</g>
<g id="Invisible_Shape">
	<rect fill="none" width="24" height="24"/>
</g>
</svg>
