<?xml version="1.0" encoding="utf-8"?>
<!-- Generator: Adobe Illustrator 16.0.3, SVG Export Plug-In . SVG Version: 6.00 Build 0)  -->
<!DOCTYPE svg PUBLIC "-//W3C//DTD SVG 1.1//EN" "http://www.w3.org/Graphics/SVG/1.1/DTD/svg11.dtd">
<svg version="1.1" xmlns="http://www.w3.org/2000/svg" xmlns:xlink="http://www.w3.org/1999/xlink" x="0px" y="0px" width="24px"
	 height="24px" viewBox="0 0 24 24" enable-background="new 0 0 24 24" xml:space="preserve">
<g id="Outline_Icons" fill="#fff">
	<g>
		<path d="M9.52,1.281c2.335-0.538,4.832-0.296,7.018,0.695c0.066,0.03,0.137,0.044,0.206,0.044c0.189,0,0.372-0.109,0.455-0.293
			c0.114-0.252,0.003-0.548-0.249-0.663c-2.384-1.081-5.106-1.346-7.654-0.758C9.026,0.368,8.858,0.637,8.92,0.906
			C8.982,1.175,9.249,1.343,9.52,1.281z"/>
		<path d="M1.408,7.485c0.069,0.034,0.143,0.05,0.216,0.05c0.186,0,0.365-0.105,0.451-0.284c1.037-2.163,2.785-3.957,4.922-5.05
			c0.246-0.126,0.344-0.427,0.218-0.672C7.089,1.281,6.785,1.187,6.542,1.31C4.211,2.502,2.304,4.458,1.173,6.818
			C1.054,7.067,1.159,7.366,1.408,7.485z"/>
		<path d="M1,12c0-0.743,0.074-1.485,0.221-2.205c0.055-0.271-0.12-0.534-0.391-0.589c-0.268-0.053-0.534,0.119-0.59,0.39
			C0.081,10.381,0,11.19,0,12c0,1.833,0.402,3.592,1.195,5.228c0.087,0.179,0.265,0.282,0.45,0.282c0.073,0,0.147-0.016,0.218-0.05
			c0.249-0.121,0.353-0.42,0.232-0.668C1.368,15.293,1,13.681,1,12z"/>
		<path d="M9.564,22.729c-2.334-0.527-4.469-1.836-6.012-3.683c-0.178-0.213-0.493-0.24-0.704-0.063
			c-0.212,0.177-0.24,0.492-0.063,0.704c1.683,2.016,4.012,3.443,6.559,4.018c0.037,0.009,0.074,0.012,0.11,0.012
			c0.229,0,0.436-0.158,0.487-0.39C10.003,23.058,9.834,22.791,9.564,22.729z"/>
		<path d="M22.665,9.291c0.057,0.227,0.261,0.377,0.484,0.377c0.04,0,0.081-0.005,0.123-0.015c0.268-0.068,0.43-0.34,0.361-0.607
			c-0.64-2.531-2.126-4.823-4.184-6.455c-0.216-0.172-0.53-0.136-0.702,0.081s-0.136,0.531,0.081,0.702
			C20.716,4.871,22.078,6.971,22.665,9.291z"/>
		<path d="M23.5,11.476c-0.276,0-0.5,0.248-0.5,0.524c0,2.438-0.781,4.748-2.259,6.679c-0.167,0.219-0.126,0.533,0.094,0.7
			c0.091,0.069,0.197,0.103,0.304,0.103c0.15,0,0.299-0.067,0.397-0.196C23.147,17.179,24,14.66,24,12v-0.047
			C24,11.677,23.776,11.476,23.5,11.476z"/>
		<path d="M18.863,20.597c-1.9,1.52-4.192,2.35-6.628,2.401c-0.275,0.005-0.495,0.234-0.489,0.51c0.006,0.273,0.229,0.49,0.5,0.49
			c0.003,0,0.007,0,0.011,0c2.657-0.056,5.157-0.962,7.231-2.62c0.216-0.172,0.25-0.487,0.078-0.703
			C19.394,20.46,19.081,20.425,18.863,20.597z"/>
		<path d="M11.958,7c-4.586,0-8.201,4.498-8.353,4.69c-0.145,0.182-0.145,0.438,0,0.621C3.757,12.502,7.372,17,11.958,17
			c4.587,0,8.202-4.498,8.354-4.689c0.145-0.182,0.145-0.439,0-0.621C20.16,11.498,16.545,7,11.958,7z M11.958,16
			c-3.442,0-6.418-3.011-7.303-4c0.883-0.99,3.854-4,7.303-4c3.443,0,6.419,3.011,7.304,4C18.379,12.991,15.408,16,11.958,16z"/>
		<path d="M11.958,9c-1.654,0-3,1.346-3,3s1.346,3,3,3s3-1.346,3-3S13.612,9,11.958,9z M11.958,14c-1.103,0-2-0.897-2-2
			c0-1.103,0.897-2,2-2s2,0.897,2,2C13.958,13.103,13.061,14,11.958,14z"/>
	</g>
</g>
<g id="Invisibla_Shape">
	<rect fill="none" width="24" height="24"/>
</g>
</svg>
