<?xml version="1.0" encoding="utf-8"?>
<!-- Generator: Adobe Illustrator 16.0.3, SVG Export Plug-In . SVG Version: 6.00 Build 0)  -->
<!DOCTYPE svg PUBLIC "-//W3C//DTD SVG 1.1//EN" "http://www.w3.org/Graphics/SVG/1.1/DTD/svg11.dtd">
<svg version="1.1" xmlns="http://www.w3.org/2000/svg" xmlns:xlink="http://www.w3.org/1999/xlink" x="0px" y="0px" width="24px"
	 height="24px" viewBox="0 0 24 24" enable-background="new 0 0 24 24" xml:space="preserve">
<g id="Outline_Icons" fill="#444">
	<g>
		<path d="M15.5,10H10V4.5C10,4.224,9.776,4,9.5,4h-9C0.224,4,0,4.224,0,4.5v19C0,23.776,0.224,24,0.5,24h2h3h2h3h3h2
			c0.276,0,0.5-0.224,0.5-0.5v-13C16,10.224,15.776,10,15.5,10z M3,23v-2h2v2H3z M7,10.5V23H6v-2.5C6,20.224,5.776,20,5.5,20h-3
			C2.224,20,2,20.224,2,20.5V23H1V5h8v1H4.5C4.224,6,4,6.224,4,6.5S4.224,7,4.5,7H9v1H6.5C6.224,8,6,8.224,6,8.5S6.224,9,6.5,9H9v1
			H7.5C7.224,10,7,10.224,7,10.5z M11,23v-2h2v2H11z M14,23v-2.5c0-0.276-0.224-0.5-0.5-0.5h-3c-0.276,0-0.5,0.224-0.5,0.5V23H8V11
			h1.5H15v1h-2.5c-0.276,0-0.5,0.224-0.5,0.5s0.224,0.5,0.5,0.5H15v1h-1.5c-0.276,0-0.5,0.224-0.5,0.5s0.224,0.5,0.5,0.5H15v8H14z"
			/>
		<path d="M18.502,3c-1.378,0-2.5,1.122-2.5,2.5s1.122,2.5,2.5,2.5s2.5-1.122,2.5-2.5S19.88,3,18.502,3z M18.502,7
			c-0.827,0-1.5-0.673-1.5-1.5s0.673-1.5,1.5-1.5s1.5,0.673,1.5,1.5S19.329,7,18.502,7z"/>
		<path d="M18.502,2c0.276,0,0.5-0.224,0.5-0.5v-1c0-0.276-0.224-0.5-0.5-0.5s-0.5,0.224-0.5,0.5v1C18.002,1.776,18.226,2,18.502,2z
			"/>
		<path d="M15.32,3.025c0.098,0.098,0.226,0.146,0.354,0.146s0.256-0.049,0.354-0.146c0.195-0.195,0.195-0.512,0-0.707L15.32,1.611
			c-0.195-0.195-0.512-0.195-0.707,0c-0.195,0.196-0.195,0.512,0,0.708L15.32,3.025z"/>
		<path d="M13.502,5.999h1c0.276,0,0.5-0.224,0.5-0.5c0-0.276-0.224-0.5-0.5-0.5h-1c-0.276,0-0.5,0.224-0.5,0.5
			C13.002,5.775,13.226,5.999,13.502,5.999z"/>
		<path d="M15.319,7.974l-0.707,0.708c-0.195,0.196-0.195,0.512,0,0.708c0.098,0.097,0.226,0.146,0.354,0.146
			s0.256-0.049,0.354-0.146l0.707-0.708c0.195-0.196,0.195-0.513,0-0.708C15.831,7.779,15.514,7.778,15.319,7.974z"/>
		<path d="M18.5,9L18.5,9C18.223,9,18,9.224,18,9.5l0.001,0.999c0,0.276,0.224,0.5,0.5,0.5h0c0.276-0.001,0.5-0.224,0.5-0.501
			L19,9.499C19,9.223,18.776,9,18.5,9z"/>
		<path d="M21.681,7.975c-0.195-0.194-0.512-0.195-0.707,0.001c-0.195,0.195-0.195,0.512,0.001,0.707l0.708,0.706
			c0.098,0.097,0.225,0.146,0.353,0.146s0.256-0.049,0.354-0.147c0.195-0.195,0.195-0.512-0.001-0.707L21.681,7.975z"/>
		<path d="M23.5,5L23.5,5l-1,0.001c-0.276,0-0.5,0.225-0.5,0.501c0,0.276,0.224,0.499,0.5,0.499h0L23.5,6C23.777,6,24,5.776,24,5.5
			C24,5.224,23.776,5,23.5,5z"/>
		<path d="M21.33,3.174c0.128,0,0.256-0.049,0.354-0.147l0.706-0.708c0.195-0.195,0.195-0.512-0.001-0.707
			c-0.195-0.195-0.512-0.196-0.707,0l-0.706,0.708c-0.195,0.195-0.195,0.512,0.001,0.708C21.075,3.125,21.202,3.174,21.33,3.174z"/>
	</g>
</g>
<g id="invisible_shape">
	<rect fill="none" width="24" height="24"/>
</g>
</svg>
