<?xml version="1.0" encoding="utf-8"?>
<!-- Generator: Adobe Illustrator 16.0.3, SVG Export Plug-In . SVG Version: 6.00 Build 0)  -->
<!DOCTYPE svg PUBLIC "-//W3C//DTD SVG 1.1//EN" "http://www.w3.org/Graphics/SVG/1.1/DTD/svg11.dtd">
<svg version="1.1" xmlns="http://www.w3.org/2000/svg" xmlns:xlink="http://www.w3.org/1999/xlink" x="0px" y="0px" width="24px"
	 height="24px" viewBox="0 0 24 24" enable-background="new 0 0 24 24" xml:space="preserve">
<g id="Outline_Icons" fill="#fff">
	<g>
		<path d="M14,20H9c-0.276,0-0.5,0.224-0.5,0.5S8.723,21,9,21h5c0.276,0,0.5-0.224,0.5-0.5S14.276,20,14,20z"/>
		<path d="M14,22H9c-0.276,0-0.5,0.224-0.5,0.5S8.723,23,9,23h2v0.5c0,0.276,0.224,0.5,0.5,0.5s0.5-0.224,0.5-0.5V23h2
			c0.276,0,0.5-0.224,0.5-0.5S14.276,22,14,22z"/>
		<path d="M11.5,0C6.261,0,2,4.037,2,9c0,3.863,2.654,7.321,6.5,8.535V18.5C8.5,18.776,8.723,19,9,19h5c0.276,0,0.5-0.224,0.5-0.5
			v-0.965C18.346,16.321,21,12.863,21,9C21,4.037,16.738,0,11.5,0z M13.868,16.679c-0.217,0.06-0.368,0.257-0.368,0.482V18h-1.582
			c-0.131-0.771-0.399-2.562-0.463-4.521c0.716,0.472,1.361,0.712,1.951,0.712c0.815,0,1.895-0.45,2.407-2.593
			c0.543-2.267-1.023-6.794-3.43-8.496c-0.124-0.088-0.28-0.116-0.426-0.072c-0.146,0.041-0.264,0.146-0.323,0.286
			c-0.535,1.265-1.435,2.122-2.306,2.951C8.334,7.215,7.395,8.109,7.06,9.503c-0.284,1.189-0.163,2.162,0.351,2.812
			c0.454,0.575,1.171,0.867,2.132,0.867c0.275,0,0.581-0.034,0.899-0.083c0.031,2.063,0.304,3.967,0.46,4.9H9.5v-0.839
			c0-0.226-0.151-0.423-0.368-0.482C5.521,15.693,3,12.536,3,9c0-4.411,3.813-8,8.5-8S20,4.589,20,9
			C20,12.536,17.478,15.693,13.868,16.679z M9.543,12.183c-0.64,0-1.093-0.164-1.347-0.486C7.883,11.3,7.825,10.604,8.033,9.735
			C8.298,8.63,9.095,7.87,10.018,6.991c0.772-0.735,1.632-1.555,2.25-2.691c1.793,1.687,2.991,5.317,2.572,7.066
			c-0.512,2.142-1.625,2.29-3.394,0.864c0.035-1.756,0.288-3.497,1.002-4.632c0.147-0.233,0.077-0.543-0.156-0.689
			c-0.234-0.147-0.542-0.076-0.69,0.156c-0.804,1.276-1.1,3.15-1.152,5.019C10.122,12.143,9.812,12.183,9.543,12.183z"/>
	</g>
</g>
<g id="invisible_shape">
	<rect fill="none" width="24" height="24"/>
</g>
</svg>
