<?xml version="1.0" encoding="utf-8"?>
<!-- Generator: Adobe Illustrator 16.0.3, SVG Export Plug-In . SVG Version: 6.00 Build 0)  -->
<!DOCTYPE svg PUBLIC "-//W3C//DTD SVG 1.1//EN" "http://www.w3.org/Graphics/SVG/1.1/DTD/svg11.dtd">
<svg version="1.1" xmlns="http://www.w3.org/2000/svg" xmlns:xlink="http://www.w3.org/1999/xlink" x="0px" y="0px" width="24px"
	 height="24px" viewBox="0 0 24 24" enable-background="new 0 0 24 24" xml:space="preserve">
<g id="Outline_Icons" fill="#fff">
	<g>
		<path d="M23.776,20.468c-0.275-0.607-0.771-1.072-1.397-1.307c-1.098-0.413-2.373,0.055-2.992,1.012l-3.426-1.284
			C15.98,18.762,16,18.633,16,18.5c0-0.224-0.039-0.438-0.095-0.645l3.645-1.821C20.018,16.632,20.721,17,21.502,17
			c0.39,0,0.765-0.089,1.115-0.264c0.597-0.298,1.043-0.812,1.254-1.445c0.211-0.633,0.163-1.311-0.135-1.908
			c-0.6-1.2-2.145-1.723-3.354-1.119c-1.08,0.539-1.599,1.762-1.297,2.885l-3.63,1.814C14.998,16.381,14.296,16,13.5,16
			c-1.379,0-2.5,1.121-2.5,2.5s1.121,2.5,2.5,2.5c0.891,0,1.669-0.471,2.111-1.174l3.421,1.281
			c-0.184,1.148,0.459,2.309,1.589,2.733c0.282,0.106,0.578,0.16,0.878,0.16c1.036,0,1.978-0.651,2.341-1.621
			C24.075,21.755,24.053,21.075,23.776,20.468z M20.83,13.158C21.04,13.054,21.265,13,21.498,13c0.573,0,1.088,0.318,1.344,0.83
			c0.179,0.358,0.208,0.765,0.081,1.145c-0.127,0.381-0.395,0.688-0.753,0.867c-0.726,0.363-1.646,0.05-2.008-0.665
			c-0.001-0.002-0.001-0.005-0.002-0.007s-0.003-0.004-0.005-0.006C19.792,14.427,20.092,13.527,20.83,13.158z M13.5,20
			c-0.827,0-1.5-0.673-1.5-1.5s0.673-1.5,1.5-1.5s1.5,0.673,1.5,1.5S14.327,20,13.5,20z M22.904,22.028
			c-0.282,0.75-1.175,1.158-1.932,0.877c-0.773-0.291-1.166-1.157-0.877-1.931c0-0.001,0.001-0.001,0.001-0.002v-0.002
			C20.316,20.39,20.879,20,21.499,20c0.18,0,0.357,0.033,0.528,0.097c0.376,0.142,0.674,0.42,0.839,0.784
			S23.045,21.653,22.904,22.028z"/>
		<path d="M5.854,8.146c-0.195-0.195-0.512-0.195-0.707,0l-3,3c-0.195,0.195-0.195,0.512,0,0.707l3,3C5.244,14.951,5.372,15,5.5,15
			s0.256-0.049,0.354-0.146c0.195-0.195,0.195-0.512,0-0.707L3.207,11.5l2.646-2.646C6.049,8.658,6.049,8.342,5.854,8.146z"/>
		<path d="M8.146,14.854C8.244,14.951,8.372,15,8.5,15s0.256-0.049,0.354-0.146l3-3c0.195-0.195,0.195-0.512,0-0.707l-3-3
			c-0.195-0.195-0.512-0.195-0.707,0s-0.195,0.512,0,0.707l2.646,2.646l-2.646,2.646C7.951,14.342,7.951,14.658,8.146,14.854z"/>
		<path d="M10.5,21H1V1h10v4.5C11,5.776,11.224,6,11.5,6H16v3.5c0,0.276,0.224,0.5,0.5,0.5S17,9.776,17,9.5v-4
			c0-0.066-0.014-0.132-0.039-0.192c-0.025-0.062-0.062-0.115-0.108-0.162l-4.998-4.999c-0.046-0.045-0.101-0.082-0.162-0.107
			C11.632,0.014,11.566,0,11.5,0h-11C0.224,0,0,0.224,0,0.5v21C0,21.776,0.224,22,0.5,22h10c0.276,0,0.5-0.224,0.5-0.5
			S10.776,21,10.5,21z M12,1.707L15.293,5H12V1.707z"/>
	</g>
</g>
<g id="Invisible_Shape">
	<rect fill="none" width="24" height="24"/>
</g>
</svg>
