<?xml version="1.0" encoding="utf-8"?>
<!-- Generator: Adobe Illustrator 16.0.3, SVG Export Plug-In . SVG Version: 6.00 Build 0)  -->
<!DOCTYPE svg PUBLIC "-//W3C//DTD SVG 1.1//EN" "http://www.w3.org/Graphics/SVG/1.1/DTD/svg11.dtd">
<svg version="1.1" xmlns="http://www.w3.org/2000/svg" xmlns:xlink="http://www.w3.org/1999/xlink" x="0px" y="0px" width="24px"
	 height="24px" viewBox="0 0 24 24" enable-background="new 0 0 24 24" xml:space="preserve">
<g id="Outline_Icons" fill="#444">
	<g>
		<path d="M1,9.5v10C1,21.981,3.019,24,5.5,24h12c2.481,0,4.5-2.019,4.5-4.5v-10c0-2.311-1.756-4.197-4-4.449V1.5
			C18,0.673,17.327,0,16.5,0h-10C5.673,0,5,0.673,5,1.5v3.551C2.756,5.303,1,7.189,1,9.5z M17,1.5V5h-1V1h0.5
			C16.775,1,17,1.225,17,1.5z M8,5V1h1v4H8z M10,1h1v4h-1V1z M12,1h1v4h-1V1z M14,1h1v4h-1V1z M6,1.5C6,1.225,6.225,1,6.5,1H7v4H6
			V1.5z M5.5,6h12C19.43,6,21,7.57,21,9.5v10c0,1.93-1.57,3.5-3.5,3.5h-12C3.57,23,2,21.43,2,19.5v-10C2,7.57,3.57,6,5.5,6z"/>
		<path d="M6.556,19.952c0.128,0,0.256-0.049,0.354-0.146L8.715,18H11.5c0.276,0,0.5-0.224,0.5-0.5S11.776,17,11.5,17H9.715l1-1
			H13.5c0.276,0,0.5-0.224,0.5-0.5S13.776,15,13.5,15h-1.785l1-1H15.5c0.276,0,0.5-0.224,0.5-0.5S15.776,13,15.5,13h-1.785l1-1H17.5
			c0.276,0,0.5-0.224,0.5-0.5S17.776,11,17.5,11h-1.785l1.083-1.083c0.195-0.195,0.195-0.512,0-0.707s-0.512-0.195-0.707,0
			L15,10.301V8.5C15,8.224,14.776,8,14.5,8S14,8.224,14,8.5v2.801l-1,1V10.5c0-0.276-0.224-0.5-0.5-0.5S12,10.224,12,10.5v2.801
			l-1,1V12.5c0-0.276-0.224-0.5-0.5-0.5S10,12.224,10,12.5v2.801l-1,1V14.5C9,14.224,8.776,14,8.5,14S8,14.224,8,14.5v2.801
			l-1.798,1.798c-0.195,0.195-0.195,0.512,0,0.707C6.3,19.903,6.428,19.952,6.556,19.952z"/>
	</g>
</g>
<g id="invisible_shape">
	<rect fill="none" width="24" height="24"/>
</g>
</svg>
