<?xml version="1.0" encoding="utf-8"?>
<!-- Generator: Adobe Illustrator 16.0.3, SVG Export Plug-In . SVG Version: 6.00 Build 0)  -->
<!DOCTYPE svg PUBLIC "-//W3C//DTD SVG 1.1//EN" "http://www.w3.org/Graphics/SVG/1.1/DTD/svg11.dtd">
<svg version="1.1" xmlns="http://www.w3.org/2000/svg" xmlns:xlink="http://www.w3.org/1999/xlink" x="0px" y="0px" width="24px"
	 height="24px" viewBox="0 0 24 24" enable-background="new 0 0 24 24" xml:space="preserve">
<g id="Outline_Icons">
	<g>
		<path d="M12,20h-0.786l-0.021-0.022C10.589,19.336,9.332,18,7,18H5v-0.5C5,17.224,4.776,17,4.5,17h-4C0.224,17,0,17.224,0,17.5v6
			C0,23.776,0.224,24,0.5,24h4C4.776,24,5,23.776,5,23.5V23h14.5c0.276,0,0.5-0.224,0.5-0.5C20,20.818,17.383,20,12,20z M4,23H1v-5
			h3V23z M5,22v-3h2c1.289,0,2.165,0.498,2.771,1H7c-0.276,0-0.5,0.224-0.5,0.5S6.724,21,7,21h5c3.739,0,5.881,0.451,6.66,1H5z"/>
		<circle cx="2.5" cy="21.5" r="0.5"/>
		<path d="M23.5,13h-1h-1.025c-0.234-4.455-3.542-8.101-7.844-8.85C13.861,3.824,14,3.429,14,3c0-1.104-0.897-2-2-2s-2,0.896-2,2
			c0,0.429,0.139,0.824,0.369,1.15C6.067,4.899,2.759,8.545,2.525,13H1.5h-1C0.224,13,0,13.224,0,13.5S0.224,14,0.5,14h0.793
			l1.854,1.854C3.24,15.947,3.367,16,3.5,16h17c0.133,0,0.26-0.053,0.354-0.146L22.708,14H23.5c0.276,0,0.5-0.224,0.5-0.5
			S23.776,13,23.5,13z M11,3c0-0.551,0.449-1,1-1s1,0.449,1,1c0,0.551-0.449,1-1,1S11,3.551,11,3z M12,5
			c4.519,0,8.214,3.546,8.475,8H3.525C3.786,8.546,7.481,5,12,5z M20.293,15H3.707l-1-1h18.586L20.293,15z"/>
		<path d="M12,6.5c-2.399,0-4.605,1.208-5.899,3.23c-0.148,0.232-0.081,0.542,0.152,0.691C6.336,10.475,6.429,10.5,6.521,10.5
			c0.165,0,0.326-0.082,0.422-0.23C8.053,8.535,9.943,7.5,12,7.5c0.276,0,0.5-0.224,0.5-0.5S12.276,6.5,12,6.5z"/>
	</g>
</g>
<g id="invisible_shape">
	<rect fill="none" width="24" height="24"/>
</g>
</svg>
