<?xml version="1.0" encoding="utf-8"?>
<!-- Generator: Adobe Illustrator 16.0.3, SVG Export Plug-In . SVG Version: 6.00 Build 0)  -->
<!DOCTYPE svg PUBLIC "-//W3C//DTD SVG 1.1//EN" "http://www.w3.org/Graphics/SVG/1.1/DTD/svg11.dtd">
<svg version="1.1" xmlns="http://www.w3.org/2000/svg" xmlns:xlink="http://www.w3.org/1999/xlink" x="0px" y="0px" width="24px"
	 height="24px" viewBox="0 0 24 24" enable-background="new 0 0 24 24" xml:space="preserve">
<g id="Outline_Icons_1_" fill="#444">
	<g id="Outline_Icons">
		<g>
			<path d="M6.5,9.993h0.793l2.854,2.854c0.096,0.096,0.224,0.146,0.354,0.146c0.064,0,0.129-0.012,0.191-0.038
				C10.878,12.878,11,12.695,11,12.493v-2.5h6.5c0.827,0,1.5-0.673,1.5-1.5v-7c0-0.827-0.673-1.5-1.5-1.5h-11
				c-0.827,0-1.5,0.673-1.5,1.5v7C5,9.32,5.673,9.993,6.5,9.993z M6,1.493c0-0.276,0.224-0.5,0.5-0.5h11c0.276,0,0.5,0.224,0.5,0.5
				v7c0,0.275-0.224,0.5-0.5,0.5h-7c-0.276,0-0.5,0.224-0.5,0.5v1.793L7.854,9.14C7.76,9.046,7.633,8.993,7.5,8.993h-1
				c-0.276,0-0.5-0.225-0.5-0.5V1.493z"/>
			<path d="M21.303,16.391c0.723-0.548,1.197-1.408,1.197-2.383c0-1.654-1.346-3-3-3s-3,1.346-3,3c0,0.975,0.475,1.835,1.197,2.383
				c-1.495,0.657-2.55,2.106-2.667,3.813c-0.362-0.333-0.772-0.612-1.228-0.813C14.525,18.843,15,17.983,15,17.008
				c0-1.654-1.346-3-3-3s-3,1.346-3,3c0,0.975,0.475,1.835,1.197,2.383c-0.456,0.201-0.866,0.48-1.228,0.813
				c-0.117-1.707-1.171-3.156-2.667-3.813C7.025,15.843,7.5,14.983,7.5,14.008c0-1.654-1.346-3-3-3s-3,1.346-3,3
				c0,0.975,0.475,1.835,1.197,2.383C1.112,17.087,0,18.668,0,20.508c0,0.276,0.224,0.5,0.5,0.5h7.762
				c-0.48,0.716-0.762,1.575-0.762,2.5c0,0.276,0.224,0.5,0.5,0.5h8c0.276,0,0.5-0.224,0.5-0.5c0-0.925-0.282-1.784-0.762-2.5H23.5
				c0.276,0,0.5-0.224,0.5-0.5C24,18.668,22.888,17.087,21.303,16.391z M17.5,14.008c0-1.103,0.897-2,2-2s2,0.897,2,2s-0.897,2-2,2
				S17.5,15.111,17.5,14.008z M10,17.008c0-1.103,0.897-2,2-2s2,0.897,2,2s-0.897,2-2,2S10,18.111,10,17.008z M2.5,14.008
				c0-1.103,0.897-2,2-2s2,0.897,2,2s-0.897,2-2,2S2.5,15.111,2.5,14.008z M1.036,20.008c0.243-1.694,1.704-3,3.464-3
				s3.221,1.306,3.464,3H1.036z M8.536,23.008c0.243-1.694,1.704-3,3.464-3s3.221,1.306,3.464,3H8.536z M16.036,20.008
				c0.243-1.694,1.704-3,3.464-3s3.221,1.306,3.464,3H16.036z"/>
			<path d="M8.5,2.993h6.969c0.276,0,0.5-0.224,0.5-0.5s-0.224-0.5-0.5-0.5H8.5c-0.276,0-0.5,0.224-0.5,0.5S8.224,2.993,8.5,2.993z"
				/>
			<path d="M8.5,4.993h6.969c0.276,0,0.5-0.224,0.5-0.5s-0.224-0.5-0.5-0.5H8.5c-0.276,0-0.5,0.224-0.5,0.5S8.224,4.993,8.5,4.993z"
				/>
			<path d="M8.5,6.993h6.969c0.276,0,0.5-0.224,0.5-0.5s-0.224-0.5-0.5-0.5H8.5c-0.276,0-0.5,0.224-0.5,0.5S8.224,6.993,8.5,6.993z"
				/>
		</g>
	</g>
	<g id="New_icons_1_">
	</g>
</g>
<g id="Invisible_Shape">
	<rect fill="none" width="24" height="24"/>
</g>
</svg>
