<?xml version="1.0" encoding="utf-8"?>
<!-- Generator: Adobe Illustrator 16.0.3, SVG Export Plug-In . SVG Version: 6.00 Build 0)  -->
<!DOCTYPE svg PUBLIC "-//W3C//DTD SVG 1.1//EN" "http://www.w3.org/Graphics/SVG/1.1/DTD/svg11.dtd">
<svg version="1.1" xmlns="http://www.w3.org/2000/svg" xmlns:xlink="http://www.w3.org/1999/xlink" x="0px" y="0px" width="24px"
	 height="24px" viewBox="0 0 24 24" enable-background="new 0 0 24 24" xml:space="preserve">
<g id="Outline_Icons" fill="#fff">
	<g>
		<path d="M23.671,6.468c-0.073-0.026-0.733-0.244-1.458,0.263c-1.113,0.781-1.688,2.819-1.712,6.061l-1.594,1.595l0.298-1.301
			c0.253-1.06-0.213-1.782-0.788-2.027c-0.529-0.226-1.292-0.096-1.807,0.702c-0.69,1.074-1.554,3.967-1.59,4.089
			C15.007,15.896,15,15.944,15,15.992V20h-0.5c-0.276,0-0.5,0.224-0.5,0.5v3c0,0.276,0.224,0.5,0.5,0.5h6c0.276,0,0.5-0.224,0.5-0.5
			v-3c0-0.276-0.224-0.5-0.5-0.5H20v-0.822c0.638-0.631,3.146-3.115,3.854-3.824C23.947,15.26,24,15.132,24,15V6.938
			C24,6.728,23.868,6.54,23.671,6.468z M20,23h-5v-2h5V23z M23,14.792c-0.991,0.989-3.852,3.821-3.852,3.821
			C19.054,18.708,19,18.836,19,18.969V20h-3v-3.934c0.256-0.851,0.956-2.993,1.452-3.764c0.173-0.271,0.403-0.396,0.572-0.323
			c0.183,0.078,0.325,0.385,0.207,0.879l-0.688,3c-0.05,0.217,0.05,0.441,0.245,0.549s0.439,0.074,0.596-0.084l2.969-2.969
			C21.447,13.26,21.5,13.133,21.5,13c0-3.904,0.789-5.078,1.26-5.43c0.086-0.064,0.167-0.105,0.24-0.131V14.792z"/>
		<path d="M9.5,20H9v-4.008c0-0.048-0.007-0.096-0.021-0.142c-0.036-0.123-0.899-3.016-1.59-4.089
			c-0.514-0.798-1.276-0.928-1.807-0.702c-0.575,0.245-1.041,0.967-0.789,2.022l0.299,1.305l-1.594-1.595
			C3.476,9.55,2.9,7.512,1.787,6.731C1.063,6.224,0.402,6.442,0.329,6.468C0.132,6.54,0,6.728,0,6.938V15
			c0,0.15,0.067,0.293,0.185,0.388C1.028,16.075,3.402,18.545,4,19.17V20H3.5C3.224,20,3,20.224,3,20.5v3C3,23.776,3.224,24,3.5,24
			h6c0.276,0,0.5-0.224,0.5-0.5v-3C10,20.224,9.776,20,9.5,20z M4.862,18.625C4.746,18.502,2.142,15.766,1,14.769V7.438
			C1.073,7.464,1.154,7.506,1.24,7.57C1.711,7.922,2.5,9.096,2.5,13c0,0.133,0.053,0.26,0.146,0.354l2.969,2.969
			c0.158,0.158,0.401,0.192,0.596,0.084c0.195-0.108,0.295-0.332,0.245-0.549l-0.688-3.005c-0.117-0.489,0.025-0.796,0.208-0.874
			c0.172-0.074,0.399,0.053,0.572,0.323C7.044,13.073,7.744,15.214,8,16.066V20H5v-1.031C5,18.841,4.951,18.718,4.862,18.625z M9,23
			H4v-2h5V23z"/>
		<path d="M12.458,12.236l6.42-7.409c0.006-0.007,0.004-0.017,0.01-0.024c0.06-0.076,0.098-0.167,0.105-0.269
			c0-0.009,0.005-0.016,0.005-0.024C18.998,4.507,19,4.504,19,4.5c0-0.102-0.038-0.192-0.091-0.271
			C18.903,4.22,18.907,4.209,18.9,4.2l-3-4c-0.011-0.015-0.027-0.021-0.04-0.033c-0.031-0.034-0.065-0.064-0.106-0.089
			c-0.024-0.014-0.049-0.025-0.076-0.036c-0.02-0.007-0.035-0.021-0.057-0.027c-0.024-0.006-0.047,0-0.07-0.003
			C15.533,0.011,15.518,0,15.5,0h-7C8.483,0,8.469,0.01,8.452,0.011c-0.023,0.002-0.046-0.003-0.07,0.003
			C8.359,0.02,8.343,0.034,8.322,0.042c-0.026,0.01-0.051,0.021-0.075,0.035C8.206,0.102,8.172,0.132,8.14,0.167
			C8.128,0.18,8.11,0.186,8.1,0.2l-3,4C5.093,4.209,5.097,4.22,5.091,4.229C5.038,4.308,5,4.398,5,4.5
			c0,0.004,0.002,0.007,0.002,0.011c0,0.008,0.005,0.015,0.005,0.024c0.008,0.102,0.046,0.192,0.105,0.269
			c0.006,0.007,0.004,0.017,0.01,0.024l6.5,7.501c0.019,0.021,0.045,0.031,0.065,0.049c0.02,0.016,0.035,0.029,0.056,0.042
			c0.078,0.048,0.163,0.082,0.257,0.082c0.007,0,0.014-0.003,0.021-0.003s0.014,0.003,0.021,0.003c0.016,0,0.027-0.012,0.043-0.014
			c0.025-0.004,0.051-0.004,0.076-0.013c0.009-0.003,0.015-0.01,0.023-0.014c0.016-0.006,0.029-0.012,0.044-0.02
			C12.326,12.399,12.402,12.333,12.458,12.236z M8.264,1.648L8.835,4H6.5L8.264,1.648z M17.5,4h-2.359l0.59-2.359L17.5,4z M17.405,5
			l-4.091,4.72L14.861,5H17.405z M14.11,4H9.862L9.136,1h5.724L14.11,4z M13.81,5l-1.796,5.479L10.164,5H13.81z M9.11,5l1.604,4.754
			L6.595,5H9.11z"/>
	</g>
</g>
<g id="Invisibla_Shape">
	<rect fill="none" width="24" height="24"/>
</g>
</svg>
