<?xml version="1.0" encoding="utf-8"?>
<!-- Generator: Adobe Illustrator 16.0.3, SVG Export Plug-In . SVG Version: 6.00 Build 0)  -->
<!DOCTYPE svg PUBLIC "-//W3C//DTD SVG 1.1//EN" "http://www.w3.org/Graphics/SVG/1.1/DTD/svg11.dtd">
<svg version="1.1" xmlns="http://www.w3.org/2000/svg" xmlns:xlink="http://www.w3.org/1999/xlink" x="0px" y="0px" width="24px"
	 height="24px" viewBox="0 0 24 24" enable-background="new 0 0 24 24" xml:space="preserve">
<g id="Outline_Icons" fill="#fff">
	<g>
		<path d="M11.59,7.998c1.328,0,2.408-1.081,2.408-2.409c0-1.328-1.08-2.409-2.408-2.409S9.182,4.261,9.182,5.588
			C9.182,6.917,10.262,7.998,11.59,7.998z M11.59,4.18c0.776,0,1.408,0.632,1.408,1.409s-0.632,1.409-1.408,1.409
			s-1.408-0.632-1.408-1.409S10.813,4.18,11.59,4.18z"/>
		<path d="M19.997,4.448C19.971,4.194,19.756,4,19.5,4h-2.556c-0.686-2.31-2.825-4-5.354-4C9.06,0,6.92,1.69,6.233,4H3.5
			C3.244,4,3.029,4.194,3.003,4.448l-2,19c-0.015,0.14,0.031,0.28,0.125,0.386C1.223,23.94,1.358,24,1.5,24h20
			c0.142,0,0.277-0.06,0.372-0.166c0.095-0.106,0.141-0.246,0.125-0.386L19.997,4.448z M7.422,17l0.389-6h0.573
			c1.318,2,2.712,3.683,2.823,3.814c0.095,0.114,0.235,0.18,0.384,0.18s0.289-0.066,0.384-0.18C12.084,14.683,13.478,13,14.795,11
			h0.572l0.388,6H7.422z M15.821,18l0.324,5H7.033l0.324-5H15.821z M3.318,11h3.49L6.42,17H2.687L3.318,11z M16.37,11h3.312l0.632,6
			h-3.555L16.37,11z M19.05,5l0.526,5h-3.271l-0.091-1.405c0.567-1.112,0.963-2.18,0.963-3.006c0-0.199-0.011-0.395-0.032-0.588
			H19.05z M11.59,1c2.53,0,4.588,2.058,4.588,4.588c0,1.978-3.021,6.159-4.588,8.115C10.022,11.748,7,7.566,7,5.588
			C7,3.058,9.059,1,11.59,1z M3.95,5h2.082C6.011,5.194,6,5.39,6,5.588c0,0.827,0.397,1.895,0.964,3.007L6.874,10h-3.45L3.95,5z
			 M2.582,18h3.774l-0.324,5H2.055L2.582,18z M17.146,23l-0.323-5h3.595l0.526,5H17.146z"/>
	</g>
</g>
<g id="invisible_shape">
	<rect fill="none" width="24" height="24"/>
</g>
</svg>
