<?xml version="1.0" encoding="UTF-8" standalone="no"?>
<svg width="161px" height="52px" viewBox="0 0 161 52" version="1.1" xmlns="http://www.w3.org/2000/svg" xmlns:xlink="http://www.w3.org/1999/xlink" xmlns:sketch="http://www.bohemiancoding.com/sketch/ns">
    <!-- Generator: Sketch 3.3.2 (12043) - http://www.bohemiancoding.com/sketch -->
    <title>Imported Layers</title>
    <desc>Created with Sketch.</desc>
    <defs></defs>
    <g id="Page-1" stroke="none" stroke-width="1" fill="none" fill-rule="evenodd" sketch:type="MSPage">
        <g id="07-case" sketch:type="MSArtboardGroup" transform="translate(-58.000000, -38.000000)" stroke="#444">
            <g id="Imported-Layers" sketch:type="MSLayerGroup" transform="translate(60.000000, 39.000000)">
                <path d="M99.1448871,24 C99.1448871,21.5012546 100.393405,18.8363335 99.6557323,16.5817896 C98.8907842,14.2450307 96.2753199,12.8227619 94.848543,10.8777029 C93.4071605,8.91326831 92.8419401,6.01200061 90.8612049,4.58240056 C88.9007065,3.16693941 85.9514243,3.52076106 83.5956939,2.76214789 C81.323022,2.03006699 79.1578687,0 76.6388368,0 C74.1199808,0 71.9548275,2.02989243 69.6819797,2.76214789 C67.3264253,3.52076106 64.376967,3.16693941 62.4161167,4.58257511 C60.4357335,6.01217517 59.870513,8.91326831 58.4293065,10.8777029 C57.0023536,12.8227619 54.3870653,14.2450307 53.6221172,16.5816151 C52.8842687,18.8363335 54.1329624,21.5012546 54.1329624,24 C54.1329624,26.4987454 52.8842687,29.1636665 53.6221172,31.4182104 C54.3868893,33.7549693 57.0023536,35.1772381 58.4293065,37.1221226 C59.870513,39.0867317 60.4357335,41.9878248 62.4161167,43.4175994 C64.376967,44.8332351 67.3262493,44.4790644 69.6818037,45.2380267 C71.9548275,45.969933 74.1199808,48 76.6388368,48 C79.1578687,48 81.3226701,45.969933 83.5956939,45.2380267 C85.9514243,44.4792389 88.9007065,44.8332351 90.8612049,43.4175994 C92.8419401,41.9879994 93.4071605,39.0867317 94.848543,37.1222971 C96.2753199,35.1772381 98.8907842,33.7549693 99.6557323,31.4183849 C100.393405,29.1636665 99.1448871,26.4987454 99.1448871,24" id="Fill-1" stroke-width="2" sketch:type="MSShapeGroup"></path>
                <path d="M0,36.8571429 L0,19.0212633 C0,16.5637453 1.92751471,14.5714286 4.30563894,14.5714286 C6.68326286,14.5714286 8.61111111,16.5637453 8.61111111,19.0212633 M8.61111111,36.8571429 L8.61111111,19.0212633 C8.61111111,16.5637453 10.5386632,14.5714286 12.9166667,14.5714286 C15.2945034,14.5714286 17.2222222,16.5637453 17.2222222,19.0212633 L17.2222222,36.8571429 M124.861111,14.5714286 L124.861111,32.4073081 C124.861111,34.8648262 122.933726,36.8571429 120.555556,36.8571429 C118.177719,36.8571429 116.25,34.8648262 116.25,32.4073081 L116.25,14.5714286 M115.388889,32.4073081 C115.388889,34.8648262 113.461374,36.8571429 111.08325,36.8571429 C108.705626,36.8571429 106.777778,34.8648262 106.777778,32.4073081 L106.777778,14.5714286 M39.6111111,36.8571429 L39.6111111,19.0212633 C39.6111111,16.5637453 41.5386632,14.5714286 43.9166667,14.5714286 C46.2945034,14.5714286 48.2222222,16.5637453 48.2222222,19.0212633 L48.2222222,36.8571429 M29.7261613,23.2585491 L28.4166667,23.2585491 C26.0386632,23.2585491 24.1111111,25.2802497 24.1111111,27.7744035 L24.1111111,33.1982564 C24.1111111,35.6924102 26.0386632,37.7142857 28.4166667,37.7142857 C30.7945034,37.7142857 32.7222222,35.6924102 32.7222222,33.1982564 L32.7222222,19.0872829 C32.7222222,16.5933041 30.7945034,14.5714286 28.4166667,14.5714286 C26.0386632,14.5714286 24.1111111,16.5933041 24.1111111,19.0872829" id="Stroke-2" stroke-width="3" stroke-linecap="round" stroke-linejoin="round" sketch:type="MSShapeGroup"></path>
                <path d="M73.1876558,14.6769227 C73.1876558,13.5840957 72.7963912,12.5841378 72.1490049,11.815672 C71.3599767,10.8789875 70.1908487,10.2857143 68.8854113,10.2857143 C66.5094951,10.2857143 64.5833333,12.2517823 64.5833333,14.6769227 L64.5833333,32.4659345 C64.5833333,34.8912449 66.5094951,36.8571429 68.8854113,36.8571429 C71.2616607,36.8571429 73.1876558,34.8912449 73.1876558,32.4659345 L73.1876558,24.9670154 C73.1876558,24.9670154 73.3094678,24.0282898 72.5211062,23.2235949 C71.8825516,22.5719809 70.8692296,22.5280977 70.8692296,22.5280977 L67.8066007,22.5280977" id="Stroke-3" stroke-width="3" stroke-linecap="round" stroke-linejoin="round" sketch:type="MSShapeGroup"></path>
                <path d="M80.0833333,19.8784062 C80.0833333,17.4208881 82.010848,15.4285714 84.3888055,15.4285714 C86.7665962,15.4285714 88.6944444,17.4208881 88.6944444,19.8784062 L88.6944444,33.2644509 C88.6944444,35.7221414 86.7665962,37.7142857 84.3888055,37.7142857 C82.010848,37.7142857 80.0833333,35.7221414 80.0833333,33.2644509 L80.0833333,19.8784062 L80.0833333,19.8784062 Z" id="Stroke-4" stroke-width="3" stroke-linecap="square" stroke-linejoin="round" sketch:type="MSShapeGroup"></path>
                <path d="M134.292175,26.9148848 L135.624908,26.9148848 C138.240478,26.9148848 140.361111,24.9914302 140.361111,22.6188535 L140.361111,22.8544804 L140.361111,18.8674599 C140.361111,16.4948831 138.240478,14.5714286 135.624908,14.5714286 C133.008972,14.5714286 130.888889,16.4948831 130.888889,18.8674599 L130.888889,32.5611116 C130.888889,34.9336883 133.008972,36.8571429 135.624908,36.8571429 C138.240478,36.8571429 140.361111,34.9336883 140.361111,32.5611116 M155,32.5904217 C155,34.9468113 152.879367,36.8571429 150.263797,36.8571429 C147.648044,36.8571429 145.527778,34.9468113 145.527778,32.5904217 L145.527778,18.8381498 C145.527778,16.4817601 147.648044,14.5714286 150.263797,14.5714286 C152.879367,14.5714286 155,16.4817601 155,18.8381498 L155,32.8274158 M145.527778,18 L145.527778,9.42857143" id="Stroke-5" stroke-width="3" stroke-linecap="round" stroke-linejoin="round" sketch:type="MSShapeGroup"></path>
            </g>
        </g>
    </g>
</svg>