<?xml version="1.0" encoding="utf-8"?>
<!-- Generator: Adobe Illustrator 16.0.3, SVG Export Plug-In . SVG Version: 6.00 Build 0)  -->
<!DOCTYPE svg PUBLIC "-//W3C//DTD SVG 1.1//EN" "http://www.w3.org/Graphics/SVG/1.1/DTD/svg11.dtd">
<svg version="1.1" xmlns="http://www.w3.org/2000/svg" xmlns:xlink="http://www.w3.org/1999/xlink" x="0px" y="0px" width="24px"
	 height="24px" viewBox="0 0 24 24" enable-background="new 0 0 24 24" xml:space="preserve">
<g id="Outline_Icons" fill="#fff">
	<g>
		<path d="M22.446,1.541c-1.604-1.602-6.085,1.479-8.138,3.046c-0.675-0.186-1.382-0.293-2.115-0.293c-4.411,0-8,3.589-8,8
			c0,0.783,0.118,1.538,0.329,2.255c-1.652,2.269-4.019,6.061-2.582,7.498c0.307,0.307,0.73,0.448,1.246,0.448
			c1.439,0,3.599-1.105,5.96-2.808c0.94,0.389,1.968,0.606,3.047,0.606c4.411,0,8-3.589,8-8c0-1.036-0.205-2.023-0.564-2.934
			c0.666-0.886,1.256-1.748,1.743-2.56C22.948,4.174,23.309,2.404,22.446,1.541z M11.693,6.294c0,0.827-0.673,1.5-1.5,1.5
			c-0.476,0-0.902-0.17-1.168-0.467C8.785,7.062,8.676,6.695,8.682,6.248c0.803-0.469,1.705-0.782,2.668-0.898
			C11.567,5.615,11.693,5.946,11.693,6.294z M7.751,6.889c0.107,0.503,0.32,0.873,0.53,1.107c0.456,0.507,1.153,0.798,1.912,0.798
			c1.378,0,2.5-1.121,2.5-2.5c0-0.343-0.075-0.677-0.207-0.985c2.633,0.109,4.89,1.677,5.989,3.917
			c-1.182,1.525-2.595,3.123-4.16,4.689c-1.902,1.901-3.692,3.435-5.28,4.617c-2.275-1.157-3.841-3.516-3.841-6.238
			C5.193,10.119,6.19,8.174,7.751,6.889z M2.647,21.34c-0.411-0.41-0.095-2.247,2.303-5.672c0.686,1.467,1.802,2.69,3.188,3.51
			C5.254,21.18,3.193,21.886,2.647,21.34z M19.193,12.294c0,3.859-3.14,7-7,7c-0.727,0-1.429-0.112-2.089-0.318
			c1.632-1.259,3.326-2.762,4.917-4.354c1.437-1.437,2.747-2.902,3.878-4.321C19.088,10.934,19.193,11.602,19.193,12.294z
			 M19.139,8.341C18.296,6.865,17,5.685,15.438,4.988c3.778-2.782,5.861-3.181,6.301-2.74c0.346,0.346,0.232,1.61-1.225,4.038
			C20.121,6.941,19.655,7.632,19.139,8.341z"/>
		<path d="M9.193,15.794c1.378,0,2.5-1.121,2.5-2.5s-1.122-2.5-2.5-2.5s-2.5,1.121-2.5,2.5S7.814,15.794,9.193,15.794z
			 M9.193,11.794c0.827,0,1.5,0.673,1.5,1.5s-0.673,1.5-1.5,1.5s-1.5-0.673-1.5-1.5S8.366,11.794,9.193,11.794z"/>
		<circle cx="14.193" cy="9.294" r="1"/>
	</g>
</g>
<g id="invisible_shape">
	<rect fill="none" width="24" height="24"/>
</g>
</svg>
