<?xml version="1.0" encoding="utf-8"?>
<!-- Generator: Adobe Illustrator 16.0.3, SVG Export Plug-In . SVG Version: 6.00 Build 0)  -->
<!DOCTYPE svg PUBLIC "-//W3C//DTD SVG 1.1//EN" "http://www.w3.org/Graphics/SVG/1.1/DTD/svg11.dtd">
<svg version="1.1" xmlns="http://www.w3.org/2000/svg" xmlns:xlink="http://www.w3.org/1999/xlink" x="0px" y="0px" width="24px"
	 height="24px" viewBox="0 0 24 24" enable-background="new 0 0 24 24" xml:space="preserve">
<g id="Outline_Icons" fill="#fff">
	<g>
		<path d="M8.5,17c-0.091,0-0.183-0.025-0.263-0.074C8.09,16.834,8,16.673,8,16.5v-9c0-0.173,0.09-0.334,0.237-0.426
			c0.147-0.091,0.332-0.099,0.486-0.021l9,4.5C17.893,11.638,18,11.811,18,12s-0.107,0.362-0.276,0.447l-9,4.5
			C8.653,16.982,8.577,17,8.5,17z M9,8.309v7.383L16.382,12L9,8.309z"/>
		<path d="M19.5,20h-15C2.019,20,0,17.981,0,15.5v-7C0,6.019,2.019,4,4.5,4h15C21.981,4,24,6.019,24,8.5v7
			C24,17.981,21.981,20,19.5,20z M4.5,5C2.57,5,1,6.57,1,8.5v7C1,17.43,2.57,19,4.5,19h15c1.93,0,3.5-1.57,3.5-3.5v-7
			C23,6.57,21.43,5,19.5,5H4.5z"/>
	</g>
</g>
<g id="Invisible_Shape">
	<rect fill="none" width="24" height="24"/>
</g>
</svg>
