<?xml version="1.0" encoding="utf-8"?>
<!-- Generator: Adobe Illustrator 16.0.3, SVG Export Plug-In . SVG Version: 6.00 Build 0)  -->
<!DOCTYPE svg PUBLIC "-//W3C//DTD SVG 1.1//EN" "http://www.w3.org/Graphics/SVG/1.1/DTD/svg11.dtd">
<svg version="1.1" xmlns="http://www.w3.org/2000/svg" xmlns:xlink="http://www.w3.org/1999/xlink" x="0px" y="0px" width="24px"
	 height="24px" viewBox="0 0 24 24" enable-background="new 0 0 24 24" xml:space="preserve">
<g id="Outline_Icons" fill="#fff">
	<g>
		<path d="M8,5.892v2.612c0,0.276,0.224,0.5,0.5,0.5S9,8.78,9,8.504V5c0-0.2-0.119-0.381-0.303-0.46
			C8.514,4.464,8.3,4.5,8.155,4.638L7.736,5.036c-0.2,0.19-0.208,0.507-0.018,0.707C7.797,5.825,7.896,5.875,8,5.892z"/>
		<path d="M4.697,10.04C4.514,9.964,4.3,10,4.155,10.138l-0.42,0.4c-0.2,0.191-0.208,0.508-0.018,0.707
			C3.797,11.327,3.896,11.377,4,11.394v2.613c0,0.276,0.224,0.5,0.5,0.5s0.5-0.224,0.5-0.5V10.5C5,10.3,4.881,10.119,4.697,10.04z"
			/>
		<path d="M18,5.892v2.612c0,0.276,0.224,0.5,0.5,0.5S19,8.78,19,8.504V5c0-0.2-0.119-0.381-0.303-0.459S18.301,4.5,18.156,4.638
			l-0.42,0.398c-0.201,0.189-0.209,0.506-0.019,0.706C17.796,5.825,17.896,5.875,18,5.892z"/>
		<path d="M18,11.394v2.613c0,0.276,0.224,0.5,0.5,0.5s0.5-0.224,0.5-0.5V10.5c0-0.2-0.119-0.381-0.303-0.46
			C18.514,9.964,18.3,10,18.155,10.138l-0.42,0.4c-0.2,0.191-0.208,0.508-0.018,0.707C17.797,11.327,17.896,11.377,18,11.394z"/>
		<path d="M15,5.892v2.612c0,0.276,0.224,0.5,0.5,0.5S16,8.78,16,8.504V5c0-0.2-0.119-0.381-0.303-0.46
			C15.513,4.464,15.3,4.5,15.155,4.638l-0.419,0.398c-0.2,0.19-0.208,0.507-0.018,0.707C14.797,5.825,14.896,5.875,15,5.892z"/>
		<path d="M11.696,10.04c-0.184-0.079-0.397-0.04-0.542,0.099l-0.418,0.4c-0.199,0.191-0.206,0.508-0.016,0.707
			c0.078,0.081,0.177,0.131,0.279,0.147v2.613c0,0.276,0.224,0.5,0.5,0.5s0.5-0.224,0.5-0.5V10.5
			C12,10.3,11.881,10.119,11.696,10.04z"/>
		<path d="M4.815,9.043c1.415,0,1.415-1.664,1.415-2.291c0-0.626,0-2.29-1.415-2.29c-1.414,0-1.414,1.664-1.414,2.29
			C3.401,7.379,3.401,9.043,4.815,9.043z M4.815,5.462c0.146,0,0.415,0,0.415,1.29c0,1.291-0.27,1.291-0.415,1.291
			c-0.145,0-0.414,0-0.414-1.291C4.401,5.462,4.671,5.462,4.815,5.462z"/>
		<path d="M11.767,9.043c1.415,0,1.415-1.664,1.415-2.291c0-0.626,0-2.29-1.415-2.29s-1.415,1.664-1.415,2.29
			C10.352,7.379,10.352,9.043,11.767,9.043z M11.767,5.462c0.146,0,0.415,0,0.415,1.29c0,1.291-0.27,1.291-0.415,1.291
			s-0.415,0-0.415-1.291C11.352,5.462,11.621,5.462,11.767,5.462z"/>
		<path d="M14.716,14.544c1.414,0,1.414-1.664,1.414-2.29c0-0.627,0-2.291-1.414-2.291c-1.415,0-1.415,1.664-1.415,2.291
			C13.301,12.88,13.301,14.544,14.716,14.544z M14.716,10.963c0.145,0,0.414,0,0.414,1.291c0,1.29-0.27,1.29-0.414,1.29
			c-0.146,0-0.415,0-0.415-1.29C14.301,10.963,14.57,10.963,14.716,10.963z"/>
		<path d="M7.765,14.544c1.415,0,1.415-1.664,1.415-2.29c0-0.627,0-2.291-1.415-2.291S6.35,11.627,6.35,12.254
			C6.35,12.88,6.35,14.544,7.765,14.544z M7.765,10.963c0.146,0,0.415,0,0.415,1.291c0,1.29-0.27,1.29-0.415,1.29
			s-0.415,0-0.415-1.29C7.35,10.963,7.619,10.963,7.765,10.963z"/>
		<path d="M22,2H2C0.897,2,0,2.938,0,4.089v14.822C0,20.062,0.897,21,2,21h9v1H5c-0.276,0-0.5,0.224-0.5,0.5S4.724,23,5,23h14
			c0.276,0,0.5-0.224,0.5-0.5S19.276,22,19,22h-7v-1h10c1.103,0,2-0.938,2-2.089V4.089C24,2.938,23.103,2,22,2z M2,3h20
			c0.552,0,1,0.488,1,1.089V16H1V4.089C1,3.488,1.448,3,2,3z M22,20H2c-0.552,0-1-0.488-1-1.089V17h22v1.911
			C23,19.512,22.552,20,22,20z"/>
		<circle cx="12" cy="18.5" r="1"/>
	</g>
</g>
<g id="Invisible_Shape">
	<rect fill="none" width="24" height="24"/>
</g>
</svg>
