<?xml version="1.0" encoding="utf-8"?>
<!-- Generator: Adobe Illustrator 16.0.3, SVG Export Plug-In . SVG Version: 6.00 Build 0)  -->
<!DOCTYPE svg PUBLIC "-//W3C//DTD SVG 1.1//EN" "http://www.w3.org/Graphics/SVG/1.1/DTD/svg11.dtd">
<svg version="1.1" xmlns="http://www.w3.org/2000/svg" xmlns:xlink="http://www.w3.org/1999/xlink" x="0px" y="0px" width="24px"
	 height="24px" viewBox="0 0 24 24" enable-background="new 0 0 24 24" xml:space="preserve">
<g id="Outline_Icons" fill="#fff">
	<g>
		<path d="M12,6h2c0.276,0,0.5-0.224,0.5-0.5S14.276,5,14,5h-2c-0.276,0-0.5,0.224-0.5,0.5S11.724,6,12,6z"/>
		<path d="M18.5,7H13c-0.276,0-0.5,0.224-0.5,0.5S12.724,8,13,8h5.5C18.776,8,19,7.776,19,7.5S18.776,7,18.5,7z"/>
		<path d="M11.5,10H18c0.276,0,0.5-0.224,0.5-0.5S18.276,9,18,9h-6.5C11.224,9,11,9.224,11,9.5S11.224,10,11.5,10z"/>
		<path d="M18.5,11h-7c-0.276,0-0.5,0.224-0.5,0.5s0.224,0.5,0.5,0.5h7c0.276,0,0.5-0.224,0.5-0.5S18.776,11,18.5,11z"/>
		<path d="M17.5,14c0.276,0,0.5-0.224,0.5-0.5S17.776,13,17.5,13h-6c-0.276,0-0.5,0.224-0.5,0.5s0.224,0.5,0.5,0.5H17.5z"/>
		<path d="M18,15h-7c-0.276,0-0.5,0.224-0.5,0.5S10.724,16,11,16h7c0.276,0,0.5-0.224,0.5-0.5S18.276,15,18,15z"/>
		<path d="M22.5,1H10.025C8.846,1,8.512,2.303,8.5,3.006C8.501,3.093,8.594,11.541,7.587,17H3c-0.435,0-0.791,0.137-1.06,0.408
			c-0.582,0.585-0.575,1.622-0.567,2.719c0.007,0.981,0.015,2.094-0.461,2.573C0.712,22.902,0.413,23,0,23
			c-0.276,0-0.5,0.224-0.5,0.5S-0.276,24,0,24h12.476c0.684,0,1.229-0.2,1.622-0.596c0.364-0.367,0.551-0.862,0.648-1.404h3.729
			c0.433,0,0.829-0.182,1.179-0.542C21.832,19.221,22.029,9.393,22.006,5H23.5C23.776,5,24,4.776,24,4.5C24,3.448,23.854,1,22.5,1z
			 M13.388,22.7c-0.2,0.203-0.499,0.3-0.912,0.3H1.931c0.457-0.786,0.449-1.889,0.442-2.88c-0.006-0.805-0.012-1.717,0.276-2.007
			C2.697,18.064,2.786,18,3,18h5h6.062c-0.216,0.582-0.219,1.335-0.213,2.127C13.855,21.108,13.863,22.221,13.388,22.7z
			 M14.849,20.12c-0.006-0.805-0.012-1.717,0.276-2.007C15.173,18.064,15.262,18,15.476,18c0.158,0,0.367,0.021,0.467,0.122
			c0.17,0.172,0.165,0.654,0.16,1.122c-0.006,0.583,0,1.221,0.287,1.756h-1.546C14.853,20.704,14.851,20.407,14.849,20.12z
			 M18.938,20.761C18.705,21,18.532,21,18.476,21c-0.529,0-0.897-0.102-1.097-0.302c-0.289-0.292-0.282-0.877-0.276-1.444
			c0.007-0.672,0.014-1.367-0.449-1.835C16.379,17.141,15.982,17,15.476,17H8.599C9.591,11.456,9.505,3.349,9.5,3.011
			C9.5,3,9.545,2,10.025,2h11.156c-0.142,0.353-0.201,0.729-0.206,1.014C21.09,7.25,20.947,18.697,18.938,20.761z M21.995,4
			c-0.007-0.469-0.015-0.81-0.02-0.99c0-0.01,0.045-0.994,0.506-1.01h0.012c0.197,0.102,0.432,0.962,0.492,2H21.995z"/>
	</g>
</g>
<g id="Invisible_Shape">
	<rect fill="none" width="24" height="24"/>
</g>
</svg>
