<?xml version="1.0" encoding="utf-8"?>
<!-- Generator: Adobe Illustrator 16.0.3, SVG Export Plug-In . SVG Version: 6.00 Build 0)  -->
<!DOCTYPE svg PUBLIC "-//W3C//DTD SVG 1.1//EN" "http://www.w3.org/Graphics/SVG/1.1/DTD/svg11.dtd">
<svg version="1.1" xmlns="http://www.w3.org/2000/svg" xmlns:xlink="http://www.w3.org/1999/xlink" x="0px" y="0px" width="24px"
	 height="24px" viewBox="0 0 24 24" enable-background="new 0 0 24 24" xml:space="preserve">
<g id="Outline_Icons" fill="#444">
	<g>
		<path d="M22.437,0.108c-0.827-0.305-1.806,0.146-2.102,0.928l-2.837,6.251c-1.821-0.508-3.876-0.782-5.967-0.782
			c-5.4,0-11.2,1.906-11.502,5H0v2c0,6.575,4.311,10.501,11.531,10.501C18.713,24.006,23,20.08,23,13.505v-2h-0.02
			c-0.087-0.859-0.615-1.682-1.553-2.407l1.967-6.873C23.712,1.38,23.283,0.431,22.437,0.108z M11.531,23.006
			c-6.527,0-10.33-3.302-10.514-9.067c1.941,1.936,6.351,3.066,10.514,3.066c4.136,0,8.518-1.128,10.451-3.061
			C21.797,19.707,18.019,23.006,11.531,23.006z M22,11.755c0,2.225-4.99,4.25-10.469,4.25C6.02,16.005,1,13.979,1,11.755
			s5.02-4.25,10.531-4.25c1.944,0,3.849,0.25,5.547,0.708l-1.45,3.195c-0.062,0.136-0.06,0.292,0.006,0.427
			c0.065,0.134,0.188,0.231,0.332,0.267c0.521,0.125,1.318,0.274,2.167,0.274c1.062,0,1.891-0.236,2.464-0.702
			c0.079-0.064,0.137-0.151,0.165-0.25l0.365-1.275C21.601,10.581,22,11.127,22,11.755z M22.446,1.911l-2.599,9.073
			c-0.608,0.4-1.748,0.495-3.051,0.268l4.46-9.831C21.38,1.1,21.773,0.93,22.084,1.044C22.414,1.17,22.583,1.542,22.446,1.911z"/>
		<path d="M6,10.005c-1.379,0-2.5,1.121-2.5,2.5c0,0.276,0.224,0.5,0.5,0.5s0.5-0.224,0.5-0.5c0-0.827,0.673-1.5,1.5-1.5
			s1.5,0.673,1.5,1.5c0,0.276,0.224,0.5,0.5,0.5s0.5-0.224,0.5-0.5C8.5,11.126,7.379,10.005,6,10.005z"/>
		<path d="M14,12.255c-1.103,0-2,0.897-2,2c0,0.276,0.224,0.5,0.5,0.5s0.5-0.224,0.5-0.5c0-0.552,0.448-1,1-1s1,0.448,1,1
			c0,0.276,0.224,0.5,0.5,0.5s0.5-0.224,0.5-0.5C16,13.152,15.103,12.255,14,12.255z"/>
		<path d="M12.5,10.505c0-0.827-0.673-1.5-1.5-1.5s-1.5,0.673-1.5,1.5c0,0.276,0.224,0.5,0.5,0.5s0.5-0.224,0.5-0.5
			c0-0.275,0.225-0.5,0.5-0.5s0.5,0.225,0.5,0.5c0,0.276,0.224,0.5,0.5,0.5S12.5,10.781,12.5,10.505z"/>
	</g>
</g>
<g id="invisible_shape">
	<rect fill="none" width="24" height="24"/>
</g>
</svg>
