<?xml version="1.0" encoding="utf-8"?>
<!-- Generator: Adobe Illustrator 16.0.3, SVG Export Plug-In . SVG Version: 6.00 Build 0)  -->
<!DOCTYPE svg PUBLIC "-//W3C//DTD SVG 1.1//EN" "http://www.w3.org/Graphics/SVG/1.1/DTD/svg11.dtd">
<svg version="1.1" xmlns="http://www.w3.org/2000/svg" xmlns:xlink="http://www.w3.org/1999/xlink" x="0px" y="0px" width="24px"
	 height="24px" viewBox="0 0 24 24" enable-background="new 0 0 24 24" xml:space="preserve">
<g id="Outline_Icons" fill="#444">
	<g>
		<path d="M22.5,1h-21C0.673,1,0,1.673,0,2.5v15C0,18.327,0.673,19,1.5,19H10v2H7c-0.276,0-0.5,0.224-0.5,0.5S6.724,22,7,22h10
			c0.276,0,0.5-0.224,0.5-0.5S17.276,21,17,21h-3v-2h8.5c0.827,0,1.5-0.673,1.5-1.5v-15C24,1.673,23.327,1,22.5,1z M13,21h-2v-2h2
			V21z M23,17.5c0,0.275-0.225,0.5-0.5,0.5h-21C1.225,18,1,17.775,1,17.5v-15C1,2.225,1.225,2,1.5,2h21C22.775,2,23,2.225,23,2.5
			V17.5z"/>
		<path d="M19.697,7.54l-7-3c-0.127-0.053-0.268-0.053-0.395,0l-7,3C5.301,7.541,5.3,7.544,5.297,7.545
			C5.22,7.579,5.158,7.637,5.108,7.703C5.095,7.721,5.084,7.735,5.073,7.754C5.031,7.828,5,7.908,5,8v3.418l-0.975,2.924
			c-0.051,0.152-0.025,0.32,0.069,0.45C4.188,14.923,4.339,15,4.5,15h2c0.161,0,0.312-0.077,0.405-0.208
			c0.095-0.13,0.12-0.298,0.069-0.45L6,11.418V8.759l2,0.857V13c0,0.189,0.107,0.362,0.276,0.447l4,2
			c0.07,0.035,0.147,0.053,0.224,0.053s0.153-0.018,0.224-0.053l4-2C16.893,13.362,17,13.189,17,13V9.616l2.697-1.156
			C19.881,8.381,20,8.2,20,8S19.881,7.619,19.697,7.54z M5.193,14L5.5,13.081L5.807,14H5.193z M16,12.691l-3.5,1.75L9,12.691v-2.646
			l3.303,1.415c0.063,0.026,0.13,0.04,0.197,0.04s0.134-0.014,0.197-0.04L16,10.045V12.691z M12.5,10.456L6.77,8l5.73-2.456L18.23,8
			L12.5,10.456z"/>
	</g>
</g>
<g id="invisible_shape">
	<rect fill="none" width="24" height="24"/>
</g>
</svg>
