<?xml version="1.0" encoding="utf-8"?>
<!-- Generator: Adobe Illustrator 16.0.3, SVG Export Plug-In . SVG Version: 6.00 Build 0)  -->
<!DOCTYPE svg PUBLIC "-//W3C//DTD SVG 1.1//EN" "http://www.w3.org/Graphics/SVG/1.1/DTD/svg11.dtd">
<svg version="1.1" xmlns="http://www.w3.org/2000/svg" xmlns:xlink="http://www.w3.org/1999/xlink" x="0px" y="0px" width="24px"
	 height="24px" viewBox="0 0 24 24" enable-background="new 0 0 24 24" xml:space="preserve">
<g id="Outline_Icons" fill="#fff">
	<g>
		<path d="M8.683,17.929C6.556,17.072,3.78,16.561,1,16.505V1.004C6.67,1.092,11,2.652,11,4v0.5C11,4.776,11.224,5,11.5,5
			S12,4.776,12,4.5V4c0-1.348,4.33-2.908,10-2.996v15.502c-0.269,0.004-0.512,0.01-0.512,0.01l0.023,1c0,0,0.656-0.016,0.988-0.016
			c0.276,0,0.5-0.224,0.5-0.5V0.5C23,0.224,22.776,0,22.5,0c-4.669,0-9.47,1.021-11,2.786C9.97,1.021,5.169,0,0.5,0
			C0.224,0,0,0.224,0,0.5V17c0,0.276,0.224,0.5,0.5,0.5c2.822,0,5.669,0.494,7.81,1.356c0.061,0.024,0.124,0.036,0.187,0.036
			c0.198,0,0.386-0.118,0.464-0.313C9.063,18.323,8.939,18.032,8.683,17.929z"/>
		<path d="M9,6.74c0.201,0,0.391-0.122,0.467-0.321c0.099-0.258-0.03-0.547-0.288-0.646C7.498,5.129,5.138,4.678,2.534,4.501
			C2.273,4.473,2.02,4.69,2.001,4.966C1.982,5.242,2.19,5.48,2.466,5.499c2.508,0.17,4.765,0.599,6.355,1.208
			C8.88,6.729,8.94,6.74,9,6.74z"/>
		<path d="M7.021,9.146c0.228,0,0.433-0.155,0.486-0.386c0.063-0.269-0.103-0.538-0.372-0.601c-1.37-0.323-2.919-0.544-4.602-0.658
			C2.273,7.47,2.02,7.69,2.001,7.966C1.982,8.242,2.19,8.48,2.466,8.499c1.63,0.11,3.124,0.323,4.441,0.633
			C6.945,9.142,6.984,9.146,7.021,9.146z"/>
		<path d="M5.846,11.911c0.03,0.005,0.061,0.008,0.091,0.008c0.236,0,0.446-0.169,0.491-0.41c0.05-0.271-0.13-0.532-0.402-0.582
			c-1.088-0.199-2.264-0.343-3.492-0.426c-0.237-0.012-0.514,0.189-0.532,0.466c-0.019,0.275,0.189,0.514,0.466,0.532
			C3.657,11.579,4.794,11.718,5.846,11.911z"/>
		<path d="M2.466,14.499c1.259,0.086,2.446,0.233,3.528,0.439c0.032,0.006,0.063,0.009,0.095,0.009c0.235,0,0.444-0.167,0.49-0.406
			c0.052-0.271-0.127-0.533-0.397-0.585c-1.122-0.214-2.35-0.366-3.647-0.455c-0.276-0.015-0.515,0.189-0.533,0.465
			S2.19,14.48,2.466,14.499z"/>
		<path d="M20.466,4.501c-1.441,0.098-2.796,0.276-4.026,0.531c-0.271,0.056-0.444,0.32-0.388,0.591
			c0.049,0.236,0.257,0.398,0.488,0.398c0.034,0,0.068-0.003,0.103-0.011c1.186-0.245,2.495-0.417,3.892-0.512
			c0.275-0.019,0.483-0.258,0.465-0.533S20.734,4.475,20.466,4.501z"/>
		<path d="M20.467,7.501c-0.372,0.025-0.736,0.056-1.095,0.092c-0.274,0.027-0.476,0.271-0.447,0.547
			c0.025,0.258,0.242,0.45,0.496,0.45c0.017,0,0.034-0.001,0.051-0.003c0.347-0.034,0.701-0.064,1.062-0.088
			c0.275-0.019,0.484-0.257,0.466-0.532C20.98,7.69,20.734,7.472,20.467,7.501z"/>
		<path d="M23.854,22.146l-5.423-5.423C19.406,15.586,20,14.112,20,12.5C20,8.916,17.084,6,13.5,6S7,8.916,7,12.5S9.916,19,13.5,19
			c1.612,0,3.086-0.594,4.224-1.569l5.423,5.423C23.244,22.951,23.372,23,23.5,23s0.256-0.049,0.354-0.146
			C24.049,22.658,24.049,22.342,23.854,22.146z M8,12.5C8,9.468,10.468,7,13.5,7S19,9.468,19,12.5S16.532,18,13.5,18
			S8,15.532,8,12.5z"/>
		<path d="M15.5,10h-4c-0.276,0-0.5,0.224-0.5,0.5v2c0,0.276,0.224,0.5,0.5,0.5s0.5-0.224,0.5-0.5V11h1v4h-1
			c-0.276,0-0.5,0.224-0.5,0.5S11.724,16,12,16h3c0.276,0,0.5-0.224,0.5-0.5S15.276,15,15,15h-1v-4h1v1.5c0,0.276,0.224,0.5,0.5,0.5
			s0.5-0.224,0.5-0.5v-2C16,10.224,15.776,10,15.5,10z"/>
	</g>
</g>
<g id="invisible_shape">
	<rect fill="none" width="24" height="24"/>
</g>
</svg>
