<?xml version="1.0" encoding="utf-8"?>
<!-- Generator: Adobe Illustrator 16.0.3, SVG Export Plug-In . SVG Version: 6.00 Build 0)  -->
<!DOCTYPE svg PUBLIC "-//W3C//DTD SVG 1.1//EN" "http://www.w3.org/Graphics/SVG/1.1/DTD/svg11.dtd">
<svg version="1.1" xmlns="http://www.w3.org/2000/svg" xmlns:xlink="http://www.w3.org/1999/xlink" x="0px" y="0px" width="24px"
	 height="24px" viewBox="0 0 24 24" enable-background="new 0 0 24 24" xml:space="preserve">
<g id="Outline_Icons_1_" fill="#444">
	<g id="Outline_Icons">
		<g>
			<path d="M14,19h-1.786l-0.021-0.022C11.589,18.336,10.331,17,8,17H5v-0.5C5,16.224,4.776,16,4.5,16h-4C0.224,16,0,16.224,0,16.5
				v7C0,23.776,0.224,24,0.5,24h4C4.776,24,5,23.776,5,23.5V23h16.5c0.276,0,0.5-0.224,0.5-0.5C22,20.438,17.784,19,14,19z M4,23H1
				v-6h3V23z M5,22v-4h3c1.289,0,2.165,0.498,2.77,1H7c-0.276,0-0.5,0.224-0.5,0.5S6.724,20,7,20h7c3.36,0,6.021,1.074,6.781,2H5z"
				/>
			<path d="M13.5,4.5C13.224,4.5,13,4.724,13,5v5.5c0,0.276,0.224,0.5,0.5,0.5h5c0.276,0,0.5-0.224,0.5-0.5S18.776,10,18.5,10H14V5
				C14,4.724,13.776,4.5,13.5,4.5z"/>
			<path d="M14,0C8.486,0,4,4.485,4,10c0,1.093,0.175,2.168,0.521,3.194c0.088,0.261,0.371,0.401,0.633,0.315
				c0.262-0.089,0.402-0.372,0.314-0.634C5.157,11.952,5,10.984,5,10c0-4.962,4.037-9,9-9s9,4.038,9,9
				c0,2.875-1.392,5.6-3.722,7.292c-0.224,0.162-0.272,0.475-0.11,0.698c0.163,0.225,0.477,0.271,0.698,0.111
				C22.454,16.222,24,13.193,24,10C24,4.485,19.514,0,14,0z"/>
		</g>
	</g>
	<g id="New_icons_1_">
	</g>
</g>
<g id="Invisible_Shape">
	<rect fill="none" width="24" height="24"/>
</g>
</svg>
