<?xml version="1.0" encoding="utf-8"?>
<!-- Generator: Adobe Illustrator 16.0.3, SVG Export Plug-In . SVG Version: 6.00 Build 0)  -->
<!DOCTYPE svg PUBLIC "-//W3C//DTD SVG 1.1//EN" "http://www.w3.org/Graphics/SVG/1.1/DTD/svg11.dtd">
<svg version="1.1" xmlns="http://www.w3.org/2000/svg" xmlns:xlink="http://www.w3.org/1999/xlink" x="0px" y="0px" width="24px"
	 height="24px" viewBox="0 0 24 24" enable-background="new 0 0 24 24" xml:space="preserve">
<g id="Outline_Icons">
	<g>
		<path d="M24.02,14.5c0-0.135-0.054-0.259-0.142-0.349l-4.94-8.894C18.849,5.099,18.682,5,18.5,5H7V1.5C7,1.224,7.225,1,7.5,1
			c0.415,0,1.032,0.239,1.294,0.5L9.15,1.858C9.057,2.053,9,2.269,9,2.5C9,3.327,9.673,4,10.5,4S12,3.327,12,2.5S11.327,1,10.5,1
			c-0.23,0-0.447,0.057-0.643,0.15L9.501,0.794C9.049,0.341,8.188,0,7.5,0C6.673,0,6,0.673,6,1.5V5H5.5
			C5.318,5,5.151,5.099,5.062,5.257l-5,9c-0.004,0.007-0.002,0.015-0.006,0.021C0.023,14.347,0,14.419,0,14.5v2
			C0,16.776,0.224,17,0.5,17H12v6h-1.5c-0.276,0-0.5,0.224-0.5,0.5s0.224,0.5,0.5,0.5h4c0.276,0,0.5-0.224,0.5-0.5
			S14.776,23,14.5,23H13v-6h10.5c0.276,0,0.5-0.224,0.5-0.5v-1.903C24.007,14.564,24.02,14.535,24.02,14.5z M11,2.5
			C11,2.776,10.775,3,10.5,3S10,2.776,10,2.5c0-0.135,0.056-0.258,0.144-0.349c0.001-0.001,0.002-0.001,0.003-0.001
			c0.002-0.002,0.002-0.004,0.003-0.005C10.24,2.056,10.363,2,10.5,2C10.775,2,11,2.224,11,2.5z M5.794,6H6v1.5
			C6,7.776,6.224,8,6.5,8S7,7.776,7,7.5V6h11.206l4.444,8H1.35L5.794,6z M23,16H1v-1h22V16z"/>
		<path d="M19.917,12.196l-1.953-4.882C17.889,7.125,17.704,7,17.5,7h-8C9.262,7,9.057,7.168,9.01,7.402l-1,5
			c-0.029,0.146,0.009,0.299,0.104,0.415C8.208,12.933,8.351,13,8.5,13h11c0.008,0.001,0.015,0,0.02,0c0.276,0,0.5-0.224,0.5-0.5
			C20.02,12.386,19.981,12.281,19.917,12.196z M9.11,12l0.8-4h7.251l1.601,4H9.11z"/>
	</g>
</g>
<g id="Invisibla_Shape">
	<rect fill="none" width="24" height="24"/>
</g>
</svg>
