<svg id="Layer_3" data-name="Layer 3" xmlns="http://www.w3.org/2000/svg" viewBox="0 0 53.5386 12.6179">
  <defs>
    <style>
      .cls-1 {
        fill: #444;
      }
    </style>
  </defs>
  <title>full</title>
  <g>
    <path class="cls-1" d="M64.7891,21.439a0.408,0.408,0,0,0,.5015.4844H65.86l0.11,0.7651a4.44,4.44,0,0,1-1.0708.144,1.0633,1.0633,0,0,1-1.13-1.2153V19.3228H63.0127V18.6172l0.748-.0425V17.3765h1.0283v1.1982h1.2236v0.748H64.7891V21.439Z" transform="translate(-48.769 -13.8839)"/>
    <path class="cls-1" d="M67.7129,21.09a0.8849,0.8849,0,0,0,1.1133.91,14.2508,14.2508,0,0,0,1.4961-.1021l0.0933,0.6626a4.547,4.547,0,0,1-1.7168.2808c-1.5127,0-2.082-.6118-2.082-2.1929,0-1.6489.6035-2.1929,2.0142-2.1929,1.3516,0,1.8955.5015,1.8955,1.4448a1.0247,1.0247,0,0,1-1.1138,1.19h-1.7Zm1.4111-.7222a0.3886,0.3886,0,0,0,.3735-0.4849c0-.4419-0.187-0.6118-0.8242-0.6118-0.7139,0-.9521.2212-0.9775,1.0967H69.124Z" transform="translate(-48.769 -13.8839)"/>
    <path class="cls-1" d="M74.8354,22.5864a4.2268,4.2268,0,0,1-1.53.2549c-1.4873,0-2.0312-.5781-2.0312-2.1929,0-1.6064.5522-2.1929,2.04-2.1929a4.2281,4.2281,0,0,1,1.4536.2383l-0.1191.6455c-0.4165-.0166-0.85-0.0166-1.1558-0.0166-0.85,0-1.1392.2891-1.1392,1.3257,0,1.0454.2891,1.3428,1.1392,1.3428a9.5586,9.5586,0,0,0,1.249-.085Z" transform="translate(-48.769 -13.8839)"/>
    <path class="cls-1" d="M76.74,18.32a4.9574,4.9574,0,0,1-.0684.8413,2.9651,2.9651,0,0,1,1.7593-.7056,1.038,1.038,0,0,1,1.1475,1.1563v3.1274H78.5415v-2.813c0-.4678-0.1108-0.5952-0.4419-0.5952a2.7963,2.7963,0,0,0-1.3687.51v2.8984H75.6943V16.79H76.74v1.53Z" transform="translate(-48.769 -13.8839)"/>
    <path class="cls-1" d="M81.4741,20.8608a1.1114,1.1114,0,0,1-.9775-1.2236c0-.918.4761-1.1816,1.7-1.1816a14.1139,14.1139,0,0,1,1.8433.1533l-0.0762.7139c-0.5264-.0171-1.062-0.0342-1.5889-0.0342-0.6968,0-.8838.0083-0.8838,0.3569,0,0.3315.1787,0.34,0.5693,0.4507l1.1221,0.3057a1.0915,1.0915,0,0,1,.9941,1.1987c0,1.02-.5615,1.2319-1.8613,1.2319a10.83,10.83,0,0,1-1.7422-.1357l0.0679-.7227c0.3315,0.0259.8843,0.0342,1.4194,0.0342,0.8838,0,1.1221-.0679,1.1221-0.3994,0-.3145-0.2212-0.34-0.6118-0.4507Z" transform="translate(-48.769 -13.8839)"/>
    <path class="cls-1" d="M87.8574,24.3965V23.1133a3.8411,3.8411,0,0,1,.085-0.9009,2.4668,2.4668,0,0,1-1.5645.6372c-0.9854,0-1.4619-.68-1.4619-2.1758,0-1.377.3916-2.2183,1.98-2.2183a6.49,6.49,0,0,1,1.9971.3145v5.6265H87.8574Zm0.0078-5.0059a3.7139,3.7139,0,0,0-.9854-0.11c-0.6719.0254-.9014,0.3057-0.9014,1.4448,0,0.85.1357,1.2407,0.7656,1.2407a2.0051,2.0051,0,0,0,1.1211-.4165V19.3906Z" transform="translate(-48.769 -13.8839)"/>
    <path class="cls-1" d="M93.7979,22.7393H92.9824l-0.0771-.561a2.8288,2.8288,0,0,1-1.7422.6714,1.0293,1.0293,0,0,1-1.1553-1.1558V18.5747h1.0361v2.813c-0.0078.4424,0.1191,0.5864,0.5107,0.5864a2.4969,2.4969,0,0,0,1.2148-.459v-2.94h1.0283v4.1646Z" transform="translate(-48.769 -13.8839)"/>
    <path class="cls-1" d="M94.93,18.66a13.8129,13.8129,0,0,1,2.082-.2041,1.2864,1.2864,0,0,1,1.5635,1.4536v2.83H97.76l-0.11-.6372a2.1535,2.1535,0,0,1-1.59.73,1.1781,1.1781,0,0,1-1.3174-1.2065V21.2007a1.0468,1.0468,0,0,1,1.2324-1.0449h1.5645V19.9c-0.0088-.4756-0.1709-0.5947-0.7656-0.5947-0.3818,0-1.0879.0337-1.7422,0.085Zm0.8408,2.83a0.4558,0.4558,0,0,0,.5439.51,2.06,2.06,0,0,0,1.2246-.4932v-0.646H96.2129a0.4026,0.4026,0,0,0-.4424.4678V21.49Z" transform="translate(-48.769 -13.8839)"/>
    <path class="cls-1" d="M101.083,21.439a0.4083,0.4083,0,0,0,.502.4844h0.5693l0.11,0.7651a4.4364,4.4364,0,0,1-1.07.144,1.0634,1.0634,0,0,1-1.1309-1.2153V19.3228H99.3066V18.6172l0.748-.0425V17.3765h1.0283v1.1982h1.2246v0.748H101.083V21.439Z" transform="translate(-48.769 -13.8839)"/>
  </g>
  <g>
    <path class="cls-1" d="M59.6463,16.9467l-5.2545-3.0336a0.2721,0.2721,0,0,0-.2455,0l-5.2545,3.0336a0.2723,0.2723,0,0,0-.1227.2126v6.0671a0.2724,0.2724,0,0,0,.1227.2126l5.2545,3.0336a0.2725,0.2725,0,0,0,.2455,0l5.2545-3.0336a0.2724,0.2724,0,0,0,.1227-0.2126V17.1593A0.2723,0.2723,0,0,0,59.6463,16.9467ZM58.769,22.791l-4.5,2.5981-4.5-2.5981V17.5947l4.5-2.5981,4.5,2.5981V22.791Z" transform="translate(-48.769 -13.8839)"/>
    <path class="cls-1" d="M51.769,17.3062a0.4474,0.4474,0,0,0,.25.5h1.75v1.7758h0.01a0.6465,0.6465,0,0,0,.9791,0h0.01V17.8062h1.75a0.4474,0.4474,0,0,0,.25-0.5,0.4473,0.4473,0,0,0-.25-0.5h-4.5A0.4473,0.4473,0,0,0,51.769,17.3062Z" transform="translate(-48.769 -13.8839)"/>
  </g>
</svg>
