<?xml version="1.0" encoding="utf-8"?>
<!-- Generator: Adobe Illustrator 16.0.3, SVG Export Plug-In . SVG Version: 6.00 Build 0)  -->
<!DOCTYPE svg PUBLIC "-//W3C//DTD SVG 1.1//EN" "http://www.w3.org/Graphics/SVG/1.1/DTD/svg11.dtd">
<svg version="1.1" xmlns="http://www.w3.org/2000/svg" xmlns:xlink="http://www.w3.org/1999/xlink" x="0px" y="0px" width="24px"
	 height="24px" viewBox="0 0 24 24" enable-background="new 0 0 24 24" xml:space="preserve">
<g id="Outline_Icons_1_" fill="#444">
	<g id="Outline_Icons">
	</g>
	<g id="New_icons_1_">
		<g>
			<path d="M21.5,2h-19C1.121,2,0,3.122,0,4.5v14C0,19.878,1.121,21,2.5,21h19c1.379,0,2.5-1.122,2.5-2.5v-14
				C24,3.122,22.879,2,21.5,2z M2.5,3h19C22.327,3,23,3.673,23,4.5V7H1V4.5C1,3.673,1.673,3,2.5,3z M21.5,20h-19
				C1.673,20,1,19.327,1,18.5V8h22v10.5C23,19.327,22.327,20,21.5,20z"/>
			<circle cx="4" cy="5" r="1"/>
			<circle cx="7" cy="5" r="1"/>
			<circle cx="10" cy="5" r="1"/>
			<path d="M18,11H6c-1.654,0-3,1.346-3,3s1.346,3,3,3h12c1.654,0,3-1.346,3-3S19.654,11,18,11z M13.387,12l-4,4H7.801l4-4H13.387z
				 M6,12h1.387l-3.07,3.07C4.118,14.761,4,14.395,4,14C4,12.896,4.897,12,6,12z M5.051,15.75L8.801,12h1.586l-4,4H6
				C5.655,16,5.335,15.904,5.051,15.75z M18,16h-7.199l4-4H18c1.103,0,2,0.896,2,2C20,15.103,19.103,16,18,16z"/>
		</g>
	</g>
</g>
<g id="Invisible_Shape">
	<rect fill="none" width="24" height="24"/>
</g>
</svg>
