<?xml version="1.0" encoding="utf-8"?>
<!-- Generator: Adobe Illustrator 16.0.3, SVG Export Plug-In . SVG Version: 6.00 Build 0)  -->
<!DOCTYPE svg PUBLIC "-//W3C//DTD SVG 1.1//EN" "http://www.w3.org/Graphics/SVG/1.1/DTD/svg11.dtd">
<svg version="1.1" xmlns="http://www.w3.org/2000/svg" xmlns:xlink="http://www.w3.org/1999/xlink" x="0px" y="0px" width="24px"
	 height="24px" viewBox="0 0 24 24" enable-background="new 0 0 24 24" xml:space="preserve">
<g id="Outline_Icons" fill="#fff">
	<g>
		<path d="M14,19h-1.766c-0.062-0.084-0.131-0.181-0.212-0.298C11.364,17.758,10.138,16,8,16H5v-0.5C5,15.224,4.776,15,4.5,15h-4
			C0.224,15,0,15.224,0,15.5v8C0,23.776,0.224,24,0.5,24h4C4.776,24,5,23.776,5,23.5V23h16.5c0.276,0,0.5-0.224,0.5-0.5
			C22,20.438,17.784,19,14,19z M4,23H1v-7h3V23z M5,22v-5h3c1.454,0,2.4,1.149,3.008,2H7c-0.276,0-0.5,0.224-0.5,0.5S6.724,20,7,20
			h7c3.36,0,6.021,1.073,6.781,2H5z"/>
		<circle cx="2.5" cy="21.5" r="0.5"/>
		<path d="M20.5,0h-16C3.121,0,2,1.121,2,2.5V11c0,0.276,0.224,0.5,0.5,0.5S3,11.276,3,11V5h19v9.5c0,0.827-0.673,1.5-1.5,1.5h-3
			c-0.276,0-0.5,0.224-0.5,0.5s0.224,0.5,0.5,0.5h3c1.379,0,2.5-1.121,2.5-2.5v-12C23,1.121,21.879,0,20.5,0z M3,4V2.5
			C3,1.673,3.673,1,4.5,1h16C21.327,1,22,1.673,22,2.5V4H3z"/>
		<circle cx="5.5" cy="2.5" r="0.5"/>
		<circle cx="7.5" cy="2.5" r="0.5"/>
		<circle cx="9.5" cy="2.5" r="0.5"/>
	</g>
</g>
<g id="Invisible_Shape">
	<rect fill="none" width="24" height="24"/>
</g>
</svg>
