<?xml version="1.0" encoding="utf-8"?>
<!-- Generator: Adobe Illustrator 16.0.3, SVG Export Plug-In . SVG Version: 6.00 Build 0)  -->
<!DOCTYPE svg PUBLIC "-//W3C//DTD SVG 1.1//EN" "http://www.w3.org/Graphics/SVG/1.1/DTD/svg11.dtd">
<svg version="1.1" xmlns="http://www.w3.org/2000/svg" xmlns:xlink="http://www.w3.org/1999/xlink" x="0px" y="0px" width="24px"
	 height="24px" viewBox="0 0 24 24" enable-background="new 0 0 24 24" xml:space="preserve">
<g id="Outline_Icons" fill="#444">
	<g>
		<path d="M21.5,0h-19C1.121,0,0,1.121,0,2.5v19C0,22.879,1.121,24,2.5,24h19c1.379,0,2.5-1.121,2.5-2.5v-19
			C24,1.121,22.879,0,21.5,0z M2.5,1h19C22.327,1,23,1.673,23,2.5V5H1V2.5C1,1.673,1.673,1,2.5,1z M1,21.5V6h8v17H2.5
			C1.673,23,1,22.327,1,21.5z M21.5,23H10V6h13v15.5C23,22.327,22.327,23,21.5,23z"/>
		<circle cx="4" cy="3" r="1"/>
		<circle cx="7" cy="3" r="1"/>
		<circle cx="10" cy="3" r="1"/>
		<path d="M3.531,9h2.984c0.276,0,0.5-0.224,0.5-0.5S6.792,8,6.516,8H3.531c-0.276,0-0.5,0.224-0.5,0.5S3.255,9,3.531,9z"/>
		<path d="M6.516,10H3.531c-0.276,0-0.5,0.224-0.5,0.5s0.224,0.5,0.5,0.5h2.984c0.276,0,0.5-0.224,0.5-0.5S6.792,10,6.516,10z"/>
		<path d="M6.516,12H3.531c-0.276,0-0.5,0.224-0.5,0.5s0.224,0.5,0.5,0.5h2.984c0.276,0,0.5-0.224,0.5-0.5S6.792,12,6.516,12z"/>
		<path d="M6.516,14H3.531c-0.276,0-0.5,0.224-0.5,0.5s0.224,0.5,0.5,0.5h2.984c0.276,0,0.5-0.224,0.5-0.5S6.792,14,6.516,14z"/>
		<path d="M6.516,16H3.531c-0.276,0-0.5,0.224-0.5,0.5s0.224,0.5,0.5,0.5h2.984c0.276,0,0.5-0.224,0.5-0.5S6.792,16,6.516,16z"/>
		<path d="M6.516,18H3.531c-0.276,0-0.5,0.224-0.5,0.5s0.224,0.5,0.5,0.5h2.984c0.276,0,0.5-0.224,0.5-0.5S6.792,18,6.516,18z"/>
		<path d="M6.516,20H3.531c-0.276,0-0.5,0.224-0.5,0.5s0.224,0.5,0.5,0.5h2.984c0.276,0,0.5-0.224,0.5-0.5S6.792,20,6.516,20z"/>
		<path d="M20.5,8h-8C12.224,8,12,8.224,12,8.5v5c0,0.276,0.224,0.5,0.5,0.5h8c0.276,0,0.5-0.224,0.5-0.5v-5
			C21,8.224,20.776,8,20.5,8z M20,13h-7V9h7V13z"/>
		<path d="M15.5,16h-3c-0.276,0-0.5,0.224-0.5,0.5v2c0,0.276,0.224,0.5,0.5,0.5h3c0.276,0,0.5-0.224,0.5-0.5v-2
			C16,16.224,15.776,16,15.5,16z M15,18h-2v-1h2V18z"/>
		<path d="M20.5,16h-3c-0.276,0-0.5,0.224-0.5,0.5v2c0,0.276,0.224,0.5,0.5,0.5h3c0.276,0,0.5-0.224,0.5-0.5v-2
			C21,16.224,20.776,16,20.5,16z M20,18h-2v-1h2V18z"/>
	</g>
</g>
<g id="Invisible_Shape">
	<rect fill="none" width="24" height="24"/>
</g>
</svg>
