<?xml version="1.0" encoding="utf-8"?>
<!-- Generator: Adobe Illustrator 16.0.4, SVG Export Plug-In . SVG Version: 6.00 Build 0)  -->
<!DOCTYPE svg PUBLIC "-//W3C//DTD SVG 1.1//EN" "http://www.w3.org/Graphics/SVG/1.1/DTD/svg11.dtd">
<svg version="1.1" xmlns="http://www.w3.org/2000/svg" xmlns:xlink="http://www.w3.org/1999/xlink" x="0px" y="0px" width="24px"
	 height="24px" viewBox="0 0 24 24" enable-background="new 0 0 24 24" xml:space="preserve">


<g id="Vrstva_3" fill="#fff">
	<g>
		<path d="M21.5,0C21.224,0,21,0.224,21,0.5v9.117l-9.243-5.545c-0.158-0.095-0.355-0.095-0.514,0L2,9.617V0.5
			C2,0.224,1.776,0,1.5,0S1,0.224,1,0.5v10c0,0.18,0.097,0.346,0.254,0.435c0.156,0.089,0.349,0.086,0.503-0.006L11.5,5.083
			l9.743,5.846C21.322,10.976,21.411,11,21.5,11c0.085,0,0.17-0.021,0.246-0.065C21.903,10.846,22,10.68,22,10.5v-10
			C22,0.224,21.776,0,21.5,0z"/>
		<path d="M21.5,13c-0.276,0-0.5,0.224-0.5,0.5V18H2v-4.5C2,13.224,1.776,13,1.5,13S1,13.224,1,13.5v10C1,23.776,1.224,24,1.5,24
			S2,23.776,2,23.5V19h19v4.5c0,0.276,0.224,0.5,0.5,0.5s0.5-0.224,0.5-0.5v-10C22,13.224,21.776,13,21.5,13z"/>
		<path d="M11.5,16c0.276,0,0.5-0.224,0.5-0.5V11h4.5c0.276,0,0.5-0.224,0.5-0.5S16.776,10,16.5,10h-10C6.224,10,6,10.224,6,10.5
			S6.224,11,6.5,11H11v4.5C11,15.776,11.224,16,11.5,16z"/>
	</g>
</g>
</svg>
