<?xml version="1.0" encoding="utf-8"?>
<!-- Generator: Adobe Illustrator 16.0.4, SVG Export Plug-In . SVG Version: 6.00 Build 0)  -->
<!DOCTYPE svg PUBLIC "-//W3C//DTD SVG 1.1//EN" "http://www.w3.org/Graphics/SVG/1.1/DTD/svg11.dtd">
<svg version="1.1" id="Vrstva_1" xmlns="http://www.w3.org/2000/svg" xmlns:xlink="http://www.w3.org/1999/xlink" x="0px" y="0px"
	 width="24px" height="24px" viewBox="0 0 24 24" enable-background="new 0 0 24 24" xml:space="preserve">
<g id="Vrstva_4">
	<g>
		<polygon fill="#444444" points="21,1 21,8.234 12,2.834 3,8.234 3,1 1,1 1,11.766 12,5.166 23,11.766 23,1 		"/>
		<polygon fill="#444444" points="21,17 3,17 3,13 1,13 1,23 3,23 3,19 21,19 21,23 23,23 23,13 21,13 		"/>
		<polygon fill="#444444" points="13,15 13,11 17,11 17,9 7,9 7,11 11,11 11,15 		"/>
	</g>
</g>
</svg>
